<svg width="48" height="48" viewBox="0 0 48 48" fill="none" xmlns="http://www.w3.org/2000/svg">
<g clip-path="url(#clip0)">
<path fill-rule="evenodd" clip-rule="evenodd" d="M49.8131 -0.354104C49.8131 -1.21435 49.1254 -1.91284 48.2783 -1.91284H0.188587C-0.658437 -1.91284 -1.34619 -1.21435 -1.34619 -0.354104V48.4863C-1.34619 49.3466 -0.658437 50.0451 0.188587 50.0451H48.2783C49.1254 50.0451 49.8131 49.3466 49.8131 48.4863V-0.354104Z" fill="#144E8C"/>
<path fill-rule="evenodd" clip-rule="evenodd" d="M49.8131 -0.354104C49.8131 -1.21435 49.1254 -1.91284 48.2783 -1.91284H0.188587C-0.658437 -1.91284 -1.34619 -1.21435 -1.34619 -0.354104V48.4863C-1.34619 49.3466 -0.658437 50.0451 0.188587 50.0451H48.2783C49.1254 50.0451 49.8131 49.3466 49.8131 48.4863V-0.354104Z" fill="#1B72BE"/>
<path fill-rule="evenodd" clip-rule="evenodd" d="M49.8131 -0.354104C49.8131 -1.21435 49.1254 -1.91284 48.2783 -1.91284H19.6291L-1.34619 34.9846V48.4863C-1.34619 49.3466 -0.658437 50.0451 0.188587 50.0451H48.2783C49.1254 50.0451 49.8131 49.3466 49.8131 48.4863V-0.354104Z" fill="#0568AA"/>
<path fill-rule="evenodd" clip-rule="evenodd" d="M22.3074 50.0451H18.7394L9.52368 31.2281L27.4826 -1.91284H30.3726L11.5716 31.1599L22.3072 50.0451H22.3074ZM31.9723 50.0451H23.0748L12.5904 31.6022H49.8167L49.8131 35.0457L31.9723 50.0451ZM23.1287 -1.91284H20.1407L-1.34619 35.8844V41.1408L23.1287 -1.91284ZM28.3191 30.9224H18.2C17.0188 30.9224 15.9205 30.2948 15.3298 29.2561C14.74 28.2185 14.74 26.9362 15.3298 25.8986L20.3965 16.9859L28.3191 30.9224ZM49.8131 30.9224H29.0865L20.7801 16.3108L31.14 -1.91284L34.8936 -1.91044L29.4415 16.9264L31.9723 22.2062L49.8131 29.3315V30.9224Z" fill="#074F7F"/>
<path fill-rule="evenodd" clip-rule="evenodd" d="M49.8129 50.0445H23.842L13.7416 32.2769H49.8129V50.0445ZM21.5399 50.0445H-1.34619V37.2342L20.908 -1.91321H29.6051L10.8041 31.1596L21.5399 50.0445ZM27.1701 30.2508H18.3768C17.3952 30.2508 16.4882 29.7277 15.9973 28.8641C15.5071 28.0021 15.5071 26.936 15.9973 26.0739C17.9506 22.6378 20.3964 18.3356 20.3964 18.3356L27.1701 30.2508ZM49.8129 30.2508H29.4732L21.5475 16.3106L31.9072 -1.91321H49.8129V30.2508Z" fill="url(#paint0_radial)"/>
<path fill-rule="evenodd" clip-rule="evenodd" d="M51 51H24.3853L13.7417 32.277H50.9815L51 51ZM10.8041 31.1597L22.0831 51H-2.91627L-3 40.1432L21.5259 -3H30.223L10.8041 31.1597ZM14.805 32.9006L24.7397 50.3769H50.3855L50.3685 32.9006H14.805ZM21.8803 -2.3764L-2.38479 40.3081L-2.30715 50.3769H21.0198L10.0952 31.1597L29.1596 -2.3764H21.8803ZM27.1701 30.2509H18.3538L18.3423 30.2504H18.3194L18.3079 30.2499H18.2965L18.285 30.2494L18.2736 30.2489L18.2622 30.2484L18.2507 30.2479L18.2393 30.2474L18.2279 30.2469L18.2165 30.2463L18.2051 30.2453L18.1937 30.2448L18.1824 30.2438L18.171 30.2433L18.1596 30.2423L18.1483 30.2413L18.137 30.2402L18.1256 30.2392L18.1143 30.2382L18.103 30.2372L18.0917 30.2362L18.0804 30.2347L18.0691 30.2337L18.0579 30.2321L18.0466 30.2311L18.0353 30.2296L18.0241 30.2281L18.0129 30.2265L18.0017 30.225L17.9905 30.2235L17.9793 30.222L17.9681 30.2205L17.9569 30.2184L17.9458 30.2169L17.9346 30.2149L17.9235 30.2134L17.9123 30.2113L17.9012 30.2093L17.8901 30.2073L17.879 30.2052L17.868 30.2032L17.8569 30.2012L17.8458 30.1991L17.8348 30.1966L17.8238 30.1946L17.8128 30.192L17.8017 30.19L17.7907 30.1875L17.7798 30.185L17.7688 30.1824L17.7579 30.1804L17.7469 30.1773L17.736 30.1748L17.7251 30.1723L17.7142 30.1697L17.7033 30.1667L17.6925 30.1641L17.6816 30.1616L17.6708 30.1586L17.6599 30.1555L17.6491 30.1525L17.6384 30.1494L17.6276 30.1464L17.6168 30.1433L17.606 30.1403L17.5953 30.1372L17.5846 30.1342L17.5739 30.1307L17.5632 30.1276L17.5525 30.1241L17.5419 30.1205L17.5312 30.1175L17.5206 30.1139L17.51 30.1104L17.4994 30.1068L17.4888 30.1033L17.4783 30.0992L17.4677 30.0956L17.4572 30.0921L17.4467 30.0885L17.4362 30.0845L17.4257 30.0804L17.4153 30.0769L17.4048 30.0728L17.3945 30.0688L17.384 30.0647L17.3736 30.0606L17.3633 30.0566L17.3529 30.0525L17.3426 30.0485L17.3323 30.0439L17.322 30.0398L17.3117 30.0353L17.3015 30.0312L17.2912 30.0266L17.281 30.0221L17.2708 30.0175L17.2606 30.0134L17.2505 30.0084L17.2403 30.0038L17.2302 29.9992L17.2201 29.9947L17.21 29.9901L17.2 29.985L17.1899 29.9805L17.1799 29.9754L17.1699 29.9708L17.1599 29.9658L17.1499 29.9607L17.14 29.9556L17.1301 29.9505L17.1202 29.9454L17.1103 29.9404L17.1004 29.9353L17.0906 29.9302L17.0808 29.9246L17.071 29.9196L17.0612 29.914L17.0515 29.9089L17.0417 29.9033L17.032 29.8978L17.0224 29.8922L17.0127 29.8866L17.003 29.8815L16.9934 29.8759L16.9838 29.8698L16.9742 29.8643L16.9647 29.8587L16.9552 29.8526L16.9457 29.847L16.9362 29.8414L16.9267 29.8353L16.9173 29.8293L16.9079 29.8232L16.8985 29.8176L16.8892 29.8115L16.8798 29.8054L16.8705 29.7993L16.8612 29.7932L16.8519 29.7866L16.8427 29.7805L16.8335 29.7745L16.8243 29.7679L16.8151 29.7618L16.806 29.7552L16.7969 29.7486L16.7878 29.7425L16.7787 29.7359L16.7697 29.7293L16.7607 29.7227L16.7517 29.7161L16.7427 29.7095L16.7338 29.7029L16.7248 29.6958L16.7159 29.6892L16.7071 29.6826L16.6983 29.6755L16.6895 29.6689L16.6807 29.6618L16.6719 29.6547L16.6632 29.6476L16.6545 29.641L16.6458 29.6339L16.6372 29.6268L16.6286 29.6192L16.62 29.6121L16.6114 29.605L16.6029 29.5979L16.5943 29.5903L16.5859 29.5832L16.5774 29.5761L16.569 29.5685L16.5606 29.5608L16.5522 29.5537L16.5439 29.5461L16.5356 29.5385L16.5273 29.5309L16.5191 29.5233L16.5109 29.5157L16.5027 29.5081L16.4945 29.5005L16.4863 29.4923L16.4782 29.4847L16.4702 29.4766L16.4621 29.469L16.4541 29.4609L16.4461 29.4533L16.4382 29.4452L16.4302 29.437L16.4223 29.4289L16.4145 29.4208L16.4066 29.4127L16.3988 29.4046L16.3911 29.3964L16.3833 29.3883L16.3756 29.3802L16.3679 29.3716L16.3603 29.3635L16.3527 29.3553L16.3451 29.3467L16.3375 29.3381L16.33 29.33L16.3226 29.3214L16.3151 29.3127L16.3077 29.3041L16.3003 29.2955L16.2929 29.2868L16.2856 29.2782L16.2783 29.2696L16.271 29.261L16.2638 29.2523L16.2566 29.2432L16.2494 29.2346L16.2423 29.2254L16.2352 29.2168L16.2281 29.2077L16.2211 29.1986L16.2141 29.1899L16.2072 29.1808L16.2003 29.1717L16.1934 29.1625L16.1865 29.1534L16.1797 29.1443L16.1729 29.1351L16.1661 29.126L16.1594 29.1169L16.1527 29.1072L16.1461 29.0981L16.1395 29.0885L16.1329 29.0793L16.1264 29.0697L16.1198 29.06L16.1134 29.0509L16.1069 29.0413L16.1005 29.0316L16.0942 29.022L16.0878 29.0123L16.0816 29.0027L16.0753 28.9931L16.0691 28.9834L16.0629 28.9738L16.0568 28.9636L16.0506 28.954L16.0446 28.9443L16.0385 28.9342L16.0325 28.9246L16.0266 28.9144L16.0207 28.9043L16.0148 28.8946L16.0089 28.8845L16.0031 28.8743L15.9974 28.8642L15.9916 28.854L15.9859 28.8439L15.9803 28.8337L15.9747 28.8236L15.9691 28.8134L15.9636 28.8033L15.9582 28.7931L15.9528 28.783L15.9474 28.7723L15.9421 28.7622L15.9368 28.7521L15.9316 28.7414L15.9264 28.7312L15.9212 28.7211L15.9161 28.7104L15.9111 28.7003L15.906 28.6896L15.9011 28.6795L15.8962 28.6688L15.8913 28.6582L15.8865 28.648L15.8817 28.6374L15.877 28.6267L15.8723 28.6166L15.8676 28.6059L15.863 28.5953L15.8584 28.5851L15.8539 28.5745L15.8494 28.5638L15.845 28.5531L15.8406 28.5425L15.8363 28.5318L15.832 28.5212L15.8278 28.5105L15.8236 28.4999L15.8194 28.4892L15.8153 28.4786L15.8112 28.4679L15.8072 28.4573L15.8032 28.4466L15.7993 28.4354L15.7954 28.4248L15.7916 28.4141L15.7878 28.4035L15.784 28.3928L15.7803 28.3817L15.7766 28.371L15.773 28.3603L15.7695 28.3492L15.766 28.3385L15.7625 28.3274L15.759 28.3167L15.7556 28.306L15.7523 28.2949L15.749 28.2842L15.7457 28.2731L15.7425 28.2619L15.7393 28.2512L15.7362 28.2401L15.7331 28.2294L15.7301 28.2183L15.7271 28.2076L15.7242 28.1964L15.7213 28.1853L15.7184 28.1746L15.7156 28.1635L15.7128 28.1523L15.7101 28.1411L15.7075 28.1305L15.7048 28.1193L15.7023 28.1082L15.6997 28.097L15.6972 28.0863L15.6948 28.0752L15.6924 28.064L15.69 28.0529L15.6877 28.0417L15.6854 28.0305L15.6832 28.0194L15.681 28.0082L15.6789 27.997L15.6768 27.9859L15.6747 27.9752L15.6727 27.9641L15.6708 27.9529L15.6689 27.9417L15.667 27.9301L15.6652 27.9194L15.6634 27.9077L15.6617 27.8966L15.66 27.8854L15.6583 27.8743L15.6568 27.8631L15.6552 27.8519L15.6537 27.8408L15.6522 27.8296L15.6508 27.8184L15.6494 27.8073L15.6481 27.7961L15.6468 27.7844L15.6456 27.7733L15.6445 27.7621L15.6433 27.7509L15.6422 27.7398L15.6412 27.7286L15.6401 27.717L15.6392 27.7058L15.6383 27.6946L15.6374 27.6835L15.6365 27.6723L15.6358 27.6606L15.635 27.6495L15.6343 27.6383L15.6337 27.6271L15.6331 27.616L15.6325 27.6043L15.632 27.5931L15.6315 27.582L15.6311 27.5708L15.6307 27.5592L15.6304 27.548L15.6301 27.5368L15.6298 27.5257L15.6296 27.514L15.6295 27.5028L15.6293 27.4917L15.6293 27.4805V27.4577L15.6293 27.4465L15.6295 27.4353L15.6296 27.4237L15.6298 27.4125L15.6301 27.4014L15.6304 27.3902L15.6307 27.3785L15.6311 27.3674L15.6315 27.3562L15.632 27.345L15.6325 27.3334L15.6331 27.3222L15.6337 27.311L15.6343 27.2999L15.635 27.2882L15.6358 27.277L15.6365 27.2659L15.6374 27.2547L15.6383 27.2435L15.6392 27.2324L15.6401 27.2207L15.6412 27.2096L15.6422 27.1984L15.6433 27.1872L15.6445 27.1761L15.6456 27.1644L15.6468 27.1532L15.6481 27.1421L15.6494 27.1309L15.6508 27.1197L15.6522 27.1086L15.6537 27.0974L15.6552 27.0863L15.6568 27.0746L15.6583 27.0634L15.66 27.0523L15.6617 27.0411L15.6634 27.0299L15.6652 27.0188L15.667 27.0076L15.6689 26.9964L15.6708 26.9853L15.6727 26.9741L15.6747 26.963L15.6768 26.9518L15.6789 26.9406L15.681 26.9295L15.6832 26.9183L15.6854 26.9077L15.6877 26.8965L15.69 26.8853L15.6924 26.8742L15.6948 26.863L15.6972 26.8518L15.6997 26.8407L15.7023 26.83L15.7048 26.8189L15.7075 26.8077L15.7101 26.7965L15.7128 26.7859L15.7156 26.7747L15.7184 26.7635L15.7213 26.7524L15.7242 26.7417L15.7271 26.7306L15.7301 26.7194L15.7331 26.7088L15.7362 26.6976L15.7393 26.6869L15.7425 26.6758L15.7457 26.6651L15.749 26.654L15.7523 26.6433L15.7556 26.6321L15.759 26.6215L15.7625 26.6103L15.766 26.5997L15.7695 26.5885L15.773 26.5778L15.7766 26.5672L15.7803 26.5565L15.784 26.5454L15.7878 26.5347L15.7916 26.5241L15.7954 26.5134L15.7993 26.5022L15.8032 26.4916L15.8072 26.4809L15.8112 26.4703L15.8153 26.4596L15.8194 26.449L15.8236 26.4383L15.8278 26.4277L15.832 26.417L15.8363 26.4063L15.8406 26.3957L15.845 26.385L15.8494 26.3744L15.8539 26.3637L15.8584 26.3531L15.863 26.3424L15.8676 26.3323L15.8723 26.3216L15.877 26.3109L15.8817 26.3008L15.8865 26.2902L15.8913 26.2795L15.8962 26.2693L15.9011 26.2587L15.906 26.248L15.9111 26.2379L15.9161 26.2277L15.9212 26.2171L15.9264 26.2069L15.9316 26.1963L15.9368 26.1861L15.9421 26.176L15.9474 26.1658L15.9528 26.1552L15.9582 26.145L15.9636 26.1349L15.9691 26.1247L15.9747 26.1146L15.9803 26.1044L15.9859 26.0938L15.9916 26.0841L15.9974 26.074L20.3965 18.3356L27.1701 30.2509ZM50.969 30.2509H29.4723L21.5475 16.3106L32.5251 -3H50.7467L50.969 30.2509ZM16.5294 26.385L16.5245 26.3937L16.5201 26.4013L16.5158 26.4089L16.5114 26.417L16.5072 26.4251L16.5028 26.4332L16.4986 26.4408L16.4944 26.449L16.4902 26.4571L16.4861 26.4647L16.482 26.4728L16.4779 26.4809L16.4738 26.489L16.4699 26.4967L16.4659 26.5048L16.4619 26.5134L16.4581 26.521L16.4543 26.5291L16.4504 26.5372L16.4467 26.5454L16.4429 26.5535L16.4391 26.5616L16.4354 26.5702L16.4318 26.5778L16.4283 26.586L16.4246 26.5946L16.4211 26.6027L16.4176 26.6108L16.4141 26.6189L16.4107 26.6271L16.4073 26.6357L16.4039 26.6438L16.4005 26.6519L16.3973 26.66L16.394 26.6687L16.3908 26.6768L16.3876 26.6849L16.3845 26.6935L16.3813 26.7016L16.3782 26.7103L16.3752 26.7184L16.3722 26.7265L16.3692 26.7351L16.3662 26.7438L16.3633 26.7519L16.3605 26.76L16.3576 26.7686L16.3548 26.7772L16.352 26.7854L16.3493 26.794L16.3466 26.8021L16.3439 26.8107L16.3413 26.8194L16.3387 26.8275L16.3361 26.8361L16.3336 26.8447L16.3311 26.8528L16.3286 26.8615L16.3262 26.8701L16.3239 26.8782L16.3215 26.8874L16.3192 26.8955L16.3169 26.9041L16.3146 26.9127L16.3124 26.9214L16.3102 26.93L16.3081 26.9381L16.306 26.9467L16.3039 26.9553L16.3018 26.964L16.2999 26.9726L16.2979 26.9812L16.2959 26.9898L16.294 26.9985L16.2921 27.0071L16.2903 27.0157L16.2885 27.0244L16.2868 27.033L16.285 27.0416L16.2833 27.0502L16.2817 27.0589L16.2801 27.0675L16.2785 27.0761L16.2769 27.0847L16.2754 27.0934L16.2739 27.102L16.2725 27.1106L16.2711 27.1192L16.2697 27.1284L16.2684 27.1365L16.2671 27.1456L16.2658 27.1543L16.2646 27.1629L16.2633 27.1715L16.2622 27.1801L16.261 27.1888L16.2599 27.1974L16.2589 27.2065L16.2578 27.2151L16.2569 27.2238L16.2559 27.2324L16.255 27.2415L16.2541 27.2501L16.2532 27.2588L16.2524 27.2674L16.2516 27.2765L16.2509 27.2852L16.2501 27.2938L16.2495 27.3024L16.2488 27.311L16.2482 27.3202L16.2476 27.3288L16.2471 27.3374L16.2466 27.3465L16.2461 27.3552L16.2457 27.3638L16.2453 27.3724L16.2449 27.3816L16.2446 27.3902L16.2443 27.3988L16.244 27.4074L16.2438 27.4166L16.2436 27.4252L16.2434 27.4338L16.2433 27.4425L16.2432 27.4516L16.2432 27.4602V27.478L16.2432 27.4866L16.2434 27.5038L16.2436 27.513L16.2438 27.5216L16.244 27.5302L16.2443 27.5394L16.2446 27.548L16.2449 27.5566L16.2453 27.5657L16.2457 27.5744L16.2466 27.5916L16.2471 27.6008L16.2476 27.6094L16.2488 27.6266L16.2495 27.6358L16.2501 27.6444L16.2516 27.6617L16.2524 27.6708L16.2541 27.688L16.2559 27.7053L16.2568 27.7144L16.2578 27.723L16.2599 27.7403L16.261 27.7489L16.2633 27.7662L16.2646 27.7753L16.2658 27.7839L16.2684 27.8012L16.2711 27.8184L16.2725 27.8276L16.2739 27.8362L16.2769 27.8534L16.2785 27.8621L16.2817 27.8793L16.2834 27.888L16.285 27.8966L16.2885 27.9138L16.2903 27.9225L16.294 27.9397L16.2959 27.9483L16.2998 27.9656L16.3018 27.9742L16.3039 27.9823L16.306 27.9915L16.3081 27.9996L16.3102 28.0082L16.3146 28.0255L16.3169 28.0341L16.3192 28.0427L16.3215 28.0508L16.3238 28.0594L16.3263 28.0681L16.3287 28.0767L16.3336 28.0934L16.3361 28.1021L16.3386 28.1102L16.3439 28.1274L16.3466 28.1356L16.3493 28.1442L16.352 28.1528L16.3548 28.1609L16.3576 28.1695L16.3604 28.1777L16.3633 28.1863L16.3662 28.1944L16.3692 28.203L16.3721 28.2112L16.3752 28.2198L16.3782 28.2279L16.3813 28.2365L16.3876 28.2528L16.3908 28.2614L16.394 28.2695L16.3972 28.2776L16.4006 28.2863L16.4039 28.2944L16.4141 28.3187L16.4176 28.3274L16.4211 28.3355L16.4246 28.3436L16.4283 28.3517L16.4318 28.3598L16.4355 28.3685L16.4429 28.3847L16.4466 28.3923L16.4504 28.4004L16.4543 28.4091L16.4581 28.4167L16.462 28.4248L16.4659 28.4329L16.4698 28.441L16.4738 28.4491L16.4779 28.4573L16.4819 28.4649L16.4944 28.4892L16.4986 28.4973L16.5028 28.5049L16.5071 28.5131L16.5115 28.5212L16.5158 28.5288L16.5201 28.5369L16.5245 28.5445L16.5289 28.5526L16.5335 28.5603L16.5381 28.5684L16.5426 28.576L16.547 28.5836L16.5516 28.5912L16.5563 28.5993L16.561 28.6069L16.5656 28.6145L16.5703 28.6222L16.5751 28.6298L16.5799 28.6374L16.5847 28.645L16.5895 28.6526L16.5942 28.6597L16.604 28.6749L16.6089 28.682L16.614 28.6896L16.6189 28.6973L16.6239 28.7043L16.629 28.712L16.6392 28.7262L16.6444 28.7338L16.6494 28.7409L16.6598 28.7551L16.6649 28.7622L16.6702 28.7693L16.6756 28.7769L16.6808 28.7835L16.6861 28.7906L16.6971 28.8048L16.7024 28.8114L16.7077 28.8185L16.7131 28.8256L16.7188 28.8327L16.7243 28.8393L16.7297 28.8459L16.7353 28.853L16.741 28.8596L16.7466 28.8667L16.7522 28.8733L16.7579 28.8799L16.7635 28.8865L16.7693 28.8931L16.7751 28.9002L16.7807 28.9063L16.7866 28.9129L16.7923 28.9195L16.7983 28.9261L16.8042 28.9327L16.81 28.9393L16.8159 28.9454L16.8219 28.952L16.8279 28.9586L16.8338 28.9647L16.8397 28.9707L16.8458 28.9773L16.852 28.9839L16.864 28.9961L16.8703 29.0022L16.8764 29.0083L16.8825 29.0144L16.8888 29.0205L16.8951 29.0271L16.9013 29.0326L16.9075 29.0387L16.9139 29.0448L16.9202 29.0509L16.9264 29.0565L16.9328 29.0626L16.9393 29.0687L16.9458 29.0748L16.952 29.0803L16.9584 29.0859L16.965 29.092L16.9717 29.0976L16.9781 29.1037L16.9846 29.1093L16.9912 29.1148L16.9977 29.1204L17.0045 29.126L17.011 29.1316L17.0176 29.1372L17.0243 29.1427L17.0309 29.1483L17.0376 29.1534L17.0445 29.159L17.0513 29.1646L17.0578 29.1696L17.0648 29.1752L17.0718 29.1808L17.0785 29.1859L17.0853 29.191L17.0923 29.1965L17.099 29.2016L17.1059 29.2067L17.1131 29.2123L17.1201 29.2173L17.127 29.2224L17.134 29.2275L17.1409 29.2321L17.1479 29.2371L17.1551 29.2422L17.1622 29.2473L17.1765 29.2574L17.1834 29.262L17.1906 29.2666L17.1981 29.2716L17.205 29.2762L17.2122 29.2813L17.2198 29.2858L17.2339 29.295L17.2414 29.3L17.2488 29.3046L17.256 29.3092L17.2633 29.3132L17.2931 29.3315L17.3006 29.3361L17.3079 29.3401L17.3152 29.3442L17.323 29.3488L17.3306 29.3533L17.3379 29.3574L17.3455 29.3614L17.3529 29.3655L17.3606 29.3696L17.3682 29.3741L17.3759 29.3782L17.3837 29.3822L17.3912 29.3858L17.3986 29.3898L17.4142 29.398L17.4218 29.4015L17.4375 29.4096L17.4451 29.4132L17.453 29.4172L17.4609 29.4208L17.4685 29.4244L17.4762 29.4279L17.4842 29.432L17.4922 29.4355L17.5 29.4391L17.508 29.4426L17.5157 29.4462L17.5236 29.4492L17.5316 29.4528L17.5397 29.4563L17.5475 29.4599L17.5554 29.4629L17.5718 29.47L17.5797 29.4731L17.5876 29.4761L17.5955 29.4791L17.6037 29.4827L17.6197 29.4888L17.6281 29.4918L17.6361 29.4949L17.6444 29.4979L17.6524 29.501L17.6605 29.5035L17.6689 29.5066L17.677 29.5096L17.6851 29.5121L17.6936 29.5152L17.7018 29.5177L17.7099 29.5208L17.7263 29.5258L17.7345 29.5284L17.7431 29.5314L17.7596 29.5365L17.7682 29.539L17.7761 29.5411L17.7844 29.5436L17.7931 29.5461L17.8014 29.5487L17.8098 29.5507L17.8185 29.5532L17.8269 29.5553L17.8349 29.5578L17.8434 29.5598L17.8521 29.5619L17.8606 29.5644L17.8687 29.5664L17.8772 29.5685L17.886 29.5705L17.8945 29.5725L17.903 29.574L17.9115 29.5761L17.9197 29.5781L17.9286 29.5801L17.9372 29.5816L17.9455 29.5837L17.9544 29.5852L17.963 29.5872L17.9713 29.5888L17.9799 29.5903L17.9886 29.5918L17.9973 29.5933L18.0063 29.5948L18.0231 29.5979L18.0321 29.5994L18.0408 29.6009L18.0492 29.6019L18.058 29.6035L18.0668 29.605L18.0756 29.606L18.0844 29.6075L18.0928 29.6085L18.1016 29.6096L18.1193 29.6116L18.1282 29.6131L18.1367 29.6141L18.1453 29.6146L18.1541 29.6156L18.1634 29.6167L18.172 29.6177L18.1806 29.6182L18.1899 29.6192L18.1985 29.6197L18.2071 29.6207L18.2164 29.6212L18.2251 29.6217L18.2337 29.6227L18.2428 29.6233L18.2518 29.6238L18.2608 29.6243L18.2695 29.6248L18.2782 29.6253H18.2873L18.2964 29.6258L18.3051 29.6263H18.3139L18.323 29.6268H18.3409L18.3497 29.6273H26.1068L20.3965 19.5823L16.5294 26.385ZM32.8795 -2.3764L22.2564 16.3106L29.8267 29.6273H50.351L50.1372 -2.3764H32.8795Z" fill="url(#paint1_linear)"/>
</g>
<defs>
<radialGradient id="paint0_radial" cx="0" cy="0" r="1" gradientUnits="userSpaceOnUse" gradientTransform="translate(37.7565 -11.6781) scale(60.7739 61.7226)">
<stop stop-color="#6BE1FB"/>
<stop offset="1" stop-color="#38BDFA"/>
</radialGradient>
<linearGradient id="paint1_linear" x1="90467" y1="48.4432" x2="90467" y2="-3.51451" gradientUnits="userSpaceOnUse">
<stop stop-color="#4AC5FA"/>
<stop offset="1" stop-color="#97E8FC"/>
</linearGradient>
<clipPath id="clip0">
<rect width="48" height="48" fill="white"/>
</clipPath>
</defs>
</svg>
