<svg width="48" height="48" viewBox="0 0 48 48" fill="none" xmlns="http://www.w3.org/2000/svg">
<g clip-path="url(#clip0)">
<rect width="48" height="48" fill="#7E4DD2"/>
<rect x="-3" y="-3" width="48" height="48" fill="#C4C4C4"/>
<path fill-rule="evenodd" clip-rule="evenodd" d="M50.1287 0.962894C50.1287 0.151367 49.4261 -0.507568 48.5609 -0.507568H-0.561654C-1.42687 -0.507568 -2.12939 0.151367 -2.12939 0.962894V47.0374C-2.12939 47.8489 -1.42687 48.5078 -0.561654 48.5078H48.5609C49.4261 48.5078 50.1287 47.8489 50.1287 47.0374V0.962894Z" fill="#7E4DD2"/>
<path fill-rule="evenodd" clip-rule="evenodd" d="M50.1287 0.962894C50.1287 0.151367 49.4261 -0.507568 48.5609 -0.507568H19.2964L-2.12939 34.3003V47.0374C-2.12939 47.8489 -1.42687 48.5078 -0.561654 48.5078H48.5609C49.4261 48.5078 50.1287 47.8489 50.1287 47.0374V0.962894Z" fill="#7140C2"/>
<path d="M50.101 49.3345L31.0637 49.3385L20.0645 31.1648H50.129C50.1217 37.2181 50.1082 43.2813 50.101 49.3345ZM30.2797 49.338H0.255604L15.2761 24.5473L30.2797 49.338ZM-0.511806 49.338H-2.99163L-3 36.3486L8.54404 17.2684H18.9006C12.4313 27.9574 5.95743 38.6491 -0.511806 49.3381V49.338ZM25.8052 17.2713C26.8009 17.2832 27.7506 17.8041 28.2617 18.6243C29.0551 19.9224 29.837 21.2266 30.6246 22.5278C31.1029 23.3274 31.1388 24.3549 30.67 25.1921C30.6588 25.2123 30.6473 25.2323 30.6353 25.2523C29.8541 26.5569 29.0607 27.8546 28.2731 29.1558C27.7832 29.9581 26.8553 30.4875 25.8771 30.5185C25.8533 30.5193 25.8057 30.5185 25.8057 30.5185H21.3767H21.3384C20.3618 30.5145 19.4152 30.0261 18.8979 29.2333C18.8849 29.2139 18.8726 29.1942 18.8601 29.1745C18.0673 27.8763 17.2854 26.5722 16.4978 25.271C16.0146 24.4645 15.9913 23.4297 16.4517 22.6065C16.4631 22.5864 16.475 22.5663 16.4864 22.5464C17.2678 21.2418 18.0616 19.9441 18.8487 18.6429C19.338 17.8424 20.267 17.3038 21.2446 17.2728C21.269 17.272 21.2928 17.2716 21.3166 17.2713C22.8132 17.2652 24.3091 17.2652 25.8052 17.2713V17.2713ZM50.1222 -1.33838V30.5185H28.2322L47.5125 -1.33838H50.1222ZM31.8461 23.252L18.3862 1.01177L19.8087 -1.33838H46.7285L31.8461 23.252ZM27.0563 16.6266L8.9375 16.6239L17.9943 1.65909C21.0132 6.64735 24.0372 11.6385 27.0563 16.6266Z" fill="#58328A"/>
<path fill-rule="evenodd" clip-rule="evenodd" d="M-0.684472 48.5078H-2.12155L-2.12939 36.4226L9.23662 17.9575H18.1204L-0.684472 48.5078ZM50.1287 31.7446V48.5078L31.9608 48.5078L21.6426 31.7446H50.1287ZM29.6092 48.5078H1.65144L15.6382 25.8105L29.6092 48.5078ZM50.1287 29.833H29.8846L48.5604 -0.507568H50.1281L50.1287 29.833ZM26.2449 17.923C27.0188 17.9261 27.7593 18.3527 28.1596 18.985C28.1638 18.9914 28.1716 19.0043 28.1716 19.0043L30.5206 22.8208C30.5206 22.8208 30.5342 22.8421 30.5405 22.8524C30.9245 23.4824 30.9392 24.2763 30.5556 24.9177C29.7681 26.21 28.9685 27.496 28.1753 28.7852C27.7854 29.4121 27.0476 29.8212 26.2637 29.8303C24.7676 29.8362 21.768 29.833 21.7638 29.833C20.9899 29.8299 20.2374 29.4427 19.8371 28.8104C19.8282 28.7967 19.8109 28.7688 19.8109 28.7688C19.8109 28.7688 17.4614 24.9518 17.4562 24.943C17.0721 24.313 17.0726 23.499 17.4562 22.8576L17.4735 22.8293C17.4735 22.8293 19.0459 20.2698 19.8334 18.9901C20.2232 18.3631 20.9622 17.9318 21.746 17.9226C21.7591 17.9225 21.7852 17.922 21.7852 17.922L26.2182 17.923H26.2449ZM20.6026 -0.507568H46.2088L32.3606 21.9902L19.5575 1.19037L20.6026 -0.507568ZM26.351 16.0474H10.4124L18.3817 3.10055L26.351 16.0474Z" fill="url(#paint0_radial)"/>
<path fill-rule="evenodd" clip-rule="evenodd" d="M-1.60599 51L-3 50.957L-2.98347 38.5774L9.43203 17.7335H18.2092L-1.60599 51ZM30.7217 50.8749L0.869685 50.7163L15.7567 25.7513L30.7217 50.8749ZM50.9318 50.8003L32.9305 50.6822L21.689 31.8098H51L50.9318 50.8003ZM9.78983 18.3341L-2.36443 38.7387L-2.37992 50.3755L-1.95707 50.3885L17.1363 18.3341H9.78983ZM1.93998 50.1217L29.6452 50.2689L15.7567 26.9518L1.93998 50.1217ZM22.7619 32.4103L33.2898 50.0842L50.3144 50.1958L50.3779 32.4103H22.7619ZM26.2098 17.6983H26.2361L26.2454 17.6984L26.2542 17.6985L26.2629 17.6986L26.2722 17.6988L26.2898 17.6993L26.2986 17.6996L26.3079 17.6999L26.3254 17.7007L26.3347 17.7011L26.3435 17.7016L26.361 17.7027L26.3703 17.7033L26.3791 17.7039L26.3967 17.7053L26.406 17.7061L26.4235 17.7077L26.4411 17.7095L26.4504 17.7104L26.4591 17.7114L26.4767 17.7135L26.4943 17.7157L26.5118 17.7181L26.5206 17.7193L26.5381 17.7219L26.5557 17.7247L26.5732 17.7275L26.5908 17.7306L26.6084 17.7338L26.6259 17.7371L26.6435 17.7406L26.6605 17.7442L26.6781 17.748L26.6956 17.7519L26.7126 17.7559L26.7302 17.7601L26.7472 17.7644L26.7643 17.7689L26.7813 17.7735L26.7989 17.7782L26.8159 17.7831L26.8329 17.7881L26.85 17.7933L26.8665 17.7986L26.8835 17.8041L26.9006 17.8096L26.9171 17.8153L26.9341 17.8211L26.9507 17.8271L26.9672 17.8332L26.9842 17.8394L27.0007 17.8458L27.0173 17.8523L27.0338 17.8589L27.0498 17.8657L27.0663 17.8725L27.0828 17.8795L27.0988 17.8867L27.1154 17.8939L27.1314 17.9013L27.1474 17.9088L27.1634 17.9165L27.1794 17.9242L27.1954 17.9321L27.2114 17.9401L27.2269 17.9482L27.2429 17.9565L27.2584 17.9648L27.2739 17.9733L27.2894 17.9819L27.3048 17.9907L27.3203 17.9995L27.3358 18.0085L27.3508 18.0175L27.3663 18.0268L27.3813 18.0361L27.3962 18.0455L27.4112 18.055L27.4262 18.0647L27.4412 18.0744L27.4556 18.0844L27.4706 18.0943L27.485 18.1044L27.4995 18.1147L27.5139 18.125L27.5284 18.1354L27.5429 18.146L27.5568 18.1566L27.5713 18.1674L27.5852 18.1782L27.5991 18.1892L27.6131 18.2003L27.627 18.2115L27.6404 18.2228L27.6544 18.2341L27.6678 18.2456L27.6812 18.2573L27.6947 18.2689L27.7081 18.2807L27.721 18.2926L27.7344 18.3046L27.7473 18.3167L27.7602 18.3289L27.7731 18.3412L27.7855 18.3536L27.7984 18.3661L27.8108 18.3787L27.8232 18.3914L27.8356 18.4041L27.8475 18.417L27.8599 18.43L27.8717 18.443L27.8836 18.4562L27.8955 18.4694L27.9074 18.4828L27.9192 18.4962L27.9306 18.5097L27.942 18.5233L27.9533 18.5369L27.9642 18.5507L27.9755 18.5646L27.9864 18.5785L27.9972 18.5925L28.0189 18.6209L28.0292 18.6352L28.0395 18.6495L28.0499 18.664L28.0602 18.6785L28.07 18.6931L28.0798 18.7078L28.0896 18.7226L28.0994 18.7375L28.1092 18.7524L28.1185 18.7674L28.1278 18.7825L28.1397 18.8022L30.4605 22.6988L30.4801 22.7311L30.4889 22.7462L30.4977 22.7614L30.5059 22.7766L30.5142 22.7919L30.523 22.8072L30.5307 22.8226L30.539 22.8381L30.5467 22.8536L30.5544 22.8692L30.5622 22.8848L30.5694 22.9004L30.5772 22.9162L30.5844 22.9319L30.5911 22.9477L30.5983 22.9636L30.605 22.9795L30.6118 22.9955L30.6185 23.0115L30.6309 23.0436L30.6433 23.0759L30.6489 23.0922L30.6546 23.1084L30.666 23.1411L30.6711 23.1574L30.6763 23.1738L30.6815 23.1903L30.6861 23.2068L30.6913 23.2233L30.6959 23.2398L30.7 23.2564L30.7047 23.273L30.7171 23.323L30.7207 23.3398L30.7243 23.3565L30.7279 23.3733L30.7315 23.3901L30.7346 23.4069L30.7408 23.4406L30.7434 23.4575L30.7465 23.4744L30.7491 23.4913L30.7512 23.5083L30.7537 23.5252L30.7558 23.5422L30.7579 23.5592L30.7599 23.5762L30.7615 23.5932L30.763 23.6103L30.7646 23.6273L30.7661 23.6443L30.7692 23.6955L30.7703 23.7127L30.7708 23.7297L30.7718 23.7639V23.8324L30.7713 23.8495V23.8665L30.7703 23.8837L30.7697 23.9008L30.7687 23.9178L30.7677 23.9349L30.7666 23.952L30.7656 23.9691L30.7641 23.9861L30.7625 24.0032L30.761 24.0203L30.7589 24.0373L30.7568 24.0544L30.7548 24.0714L30.7527 24.0883L30.7501 24.1053L30.7475 24.1223L30.745 24.1393L30.7419 24.1562L30.7393 24.1731L30.7362 24.19L30.7326 24.2069L30.7295 24.2237L30.7259 24.2406L30.7222 24.2574L30.7181 24.2742L30.7145 24.291L30.7104 24.3077L30.7062 24.3244L30.7016 24.3411L30.6969 24.3578L30.6923 24.3744L30.6877 24.391L30.6825 24.4076L30.6778 24.4241L30.6722 24.4406L30.667 24.4571L30.6613 24.4735L30.6556 24.4899L30.65 24.5062L30.6443 24.5226L30.6381 24.5389L30.6319 24.5551L30.6252 24.5713L30.619 24.5875L30.6123 24.6036L30.6056 24.6196L30.5983 24.6357L30.5916 24.6517L30.5839 24.6676L30.5767 24.6835L30.5694 24.6994L30.5617 24.7152L30.5539 24.7309L30.5457 24.7467L30.5379 24.7623L30.5297 24.7779L30.5209 24.7934L30.5126 24.8089L30.5039 24.8243L30.4951 24.8397L30.4223 24.9634L30.349 25.087L30.2762 25.2106L30.2029 25.3342L30.1295 25.4577L30.0562 25.5812L29.9829 25.7047L29.9096 25.8282L29.8363 25.9517L29.763 26.0751L29.6158 26.3218L29.4687 26.5685L29.3215 26.8152L29.1739 27.0618L29.0267 27.3084L28.7319 27.8016L28.5848 28.0482L28.4376 28.2949L28.2905 28.5416L28.1433 28.7883L28.134 28.8033L28.1247 28.8181L28.1154 28.833L28.1061 28.8477L28.0969 28.8623L28.087 28.8769L28.0772 28.8913L28.0669 28.9057L28.0571 28.92L28.0468 28.9342L28.0364 28.9483L28.0261 28.9623L28.0158 28.9763L28.005 28.9901L27.9941 29.0039L27.9833 29.0176L27.9724 29.0311L27.9611 29.0446L27.9502 29.0581L27.9389 29.0714L27.9275 29.0846L27.9156 29.0977L27.9043 29.1108L27.8924 29.1237L27.8805 29.1365L27.8686 29.1493L27.8568 29.1619L27.8444 29.1745L27.832 29.187L27.8196 29.1993L27.8072 29.2116L27.7948 29.2238L27.7819 29.2359L27.769 29.2478L27.7566 29.2597L27.7432 29.2715L27.7303 29.2832L27.7174 29.2947L27.7039 29.3062L27.6905 29.3176L27.6771 29.3288L27.6637 29.34L27.6503 29.3511L27.6363 29.362L27.6229 29.3729L27.609 29.3836L27.595 29.3942L27.5806 29.4048L27.5666 29.4152L27.5522 29.4255L27.5382 29.4357L27.5238 29.4458L27.5093 29.4559L27.4948 29.4657L27.4804 29.4755L27.4654 29.4851L27.4504 29.4947L27.436 29.5041L27.421 29.5135L27.406 29.5227L27.3905 29.5318L27.3756 29.5408L27.3606 29.5496L27.3451 29.5584L27.3296 29.5671L27.3141 29.5756L27.2987 29.584L27.2832 29.5923L27.2677 29.6004L27.2517 29.6085L27.2362 29.6164L27.2202 29.6243L27.2042 29.632L27.1882 29.6395L27.1722 29.647L27.1562 29.6543L27.1401 29.6615L27.1236 29.6686L27.1076 29.6756L27.0911 29.6824L27.0746 29.6892L27.0581 29.6958L27.0415 29.7022L27.025 29.7086L27.0085 29.7148L26.992 29.7209L26.9754 29.7268L26.9584 29.7327L26.9414 29.7384L26.9249 29.744L26.9078 29.7495L26.8908 29.7548L26.8737 29.76L26.8567 29.765L26.8397 29.7699L26.8226 29.7747L26.8051 29.7794L26.788 29.7839L26.7705 29.7883L26.7534 29.7926L26.7359 29.7967L26.7183 29.8008L26.7013 29.8046L26.6837 29.8083L26.6662 29.8119L26.6486 29.8154L26.6311 29.8187L26.6135 29.8218L26.5955 29.8249L26.5779 29.8278L26.5603 29.8305L26.5423 29.8331L26.5247 29.8356L26.5066 29.8379L26.4891 29.8401L26.471 29.8422L26.453 29.8441L26.4354 29.8458L26.4173 29.8474L26.3993 29.8489L26.3812 29.8502L26.3631 29.8514L26.345 29.8524L26.327 29.8534L26.3089 29.8541L26.2908 29.8547L26.2728 29.8551L26.2547 29.8554L26.1117 29.8559L25.9609 29.8565L25.8034 29.8569L25.6393 29.8573L25.4699 29.8576L25.2959 29.8579L25.1178 29.8582L24.9371 29.8584L24.5695 29.8587L24.1993 29.8589L23.8338 29.859H23.4791L23.1414 29.859L22.8275 29.8589L22.544 29.8587L22.2972 29.8585L21.9405 29.8583L21.8088 29.8581L21.7907 29.858L21.7732 29.8577L21.7551 29.8573L21.737 29.8567L21.7195 29.8559L21.7014 29.8551L21.6839 29.8541L21.6658 29.8529L21.6482 29.8517L21.6302 29.8502L21.6126 29.8487L21.5946 29.847L21.577 29.8452L21.5594 29.8432L21.5414 29.8411L21.5238 29.8388L21.5063 29.8364L21.4887 29.8339L21.4706 29.8313L21.4531 29.8285L21.4355 29.8255L21.418 29.8225L21.4009 29.8193L21.3834 29.8159L21.3658 29.8125L21.3483 29.8089L21.3307 29.8051L21.3137 29.8013L21.2961 29.7972L21.2791 29.7931L21.2615 29.7888L21.2445 29.7844L21.2275 29.7799L21.2104 29.7753L21.1934 29.7705L21.1758 29.7656L21.1588 29.7605L21.1423 29.7554L21.1252 29.7501L21.1082 29.7446L21.0917 29.739L21.0746 29.7333L21.0576 29.7275L21.0411 29.7216L21.0246 29.7156L21.008 29.7094L20.9915 29.7031L20.975 29.6966L20.9585 29.6901L20.9419 29.6834L20.9259 29.6765L20.9094 29.6696L20.8934 29.6626L20.8769 29.6554L20.8609 29.6481L20.8449 29.6407L20.8289 29.6332L20.8129 29.6255L20.7969 29.6177L20.7814 29.6098L20.7654 29.6018L20.7499 29.5936L20.7344 29.5854L20.7189 29.577L20.7034 29.5685L20.6879 29.5599L20.6724 29.5512L20.6569 29.5423L20.642 29.5334L20.627 29.5243L20.6115 29.5151L20.5965 29.5058L20.5821 29.4964L20.5671 29.4868L20.5521 29.4772L20.5377 29.4675L20.5232 29.4576L20.5083 29.4476L20.4943 29.4375L20.4799 29.4273L20.4654 29.417L20.4515 29.4065L20.437 29.396L20.4231 29.3853L20.4091 29.3746L20.3952 29.3637L20.3818 29.3527L20.3678 29.3417L20.3544 29.3304L20.341 29.3191L20.3275 29.3077L20.3141 29.2962L20.3007 29.2846L20.2878 29.2729L20.2749 29.261L20.262 29.2491L20.2491 29.2371L20.2362 29.2249L20.2238 29.2127L20.2114 29.2003L20.199 29.1879L20.1866 29.1753L20.1742 29.1626L20.1623 29.1499L20.1499 29.137L20.1381 29.1241L20.1262 29.111L20.1148 29.0978L20.103 29.0845L20.0916 29.0712L20.0802 29.0577L20.0689 29.0441L20.058 29.0305L20.0467 29.0167L20.0358 29.0029L20.025 28.9889L20.0147 28.9749L20.0038 28.9607L19.9935 28.9465L19.9832 28.9321L19.9728 28.9177L19.9677 28.9105L19.963 28.9032L19.9579 28.8959L19.9527 28.8886L19.9481 28.8813L19.9429 28.8738L19.9383 28.8665L19.9331 28.859L19.9284 28.8516L19.9238 28.8442L19.9192 28.8367L19.9145 28.8292L19.9093 28.8217L19.9052 28.8141L19.8794 28.7716L17.5529 24.8655L17.5483 24.8579L17.5442 24.8504L17.54 24.8428L17.5354 24.8352L17.5313 24.8276L17.5271 24.82L17.5183 24.8047L17.5101 24.7893L17.5023 24.7738L17.4941 24.7583L17.4863 24.7427L17.4786 24.7271L17.4708 24.7115L17.4636 24.6957L17.4564 24.6799L17.4492 24.6641L17.4419 24.6482L17.4352 24.6322L17.4285 24.6162L17.4218 24.6001L17.4156 24.584L17.4089 24.5678L17.4027 24.5516L17.397 24.5354L17.3908 24.5191L17.3851 24.5027L17.3795 24.4863L17.3743 24.4698L17.3686 24.4533L17.3635 24.4368L17.3583 24.4202L17.3537 24.4036L17.349 24.387L17.3444 24.3703L17.3397 24.3536L17.3351 24.3368L17.3309 24.32L17.3268 24.3032L17.3232 24.2863L17.3191 24.2694L17.3154 24.2525L17.3118 24.2356L17.3087 24.2185L17.3051 24.2016L17.302 24.1845L17.2994 24.1674L17.2963 24.1504L17.2938 24.1333L17.2912 24.1162L17.2886 24.099L17.2865 24.0818L17.2845 24.0647L17.2824 24.0474L17.2803 24.0302L17.2788 24.013L17.2767 23.9957L17.2757 23.9785L17.2741 23.9612L17.2731 23.9439L17.2721 23.9266L17.271 23.9093L17.2705 23.892L17.27 23.8746L17.2695 23.8573L17.269 23.84V23.8226L17.2685 23.8053L17.269 23.788V23.7706L17.2695 23.7533L17.27 23.7359L17.2705 23.7186L17.271 23.7012L17.2721 23.6839L17.2731 23.6666L17.2741 23.6492L17.2757 23.6319L17.2772 23.6146L17.2788 23.5973L17.2803 23.58L17.2824 23.5628L17.2845 23.5455L17.2865 23.5282L17.2886 23.511L17.2912 23.4938L17.2938 23.4765L17.2963 23.4594L17.2994 23.4422L17.3025 23.4251L17.3056 23.4079L17.3087 23.3908L17.3123 23.3738L17.3154 23.3567L17.3196 23.3396L17.3232 23.3226L17.3273 23.3056L17.3314 23.2887L17.3356 23.2718L17.3397 23.2549L17.3444 23.238L17.349 23.2212L17.3537 23.2044L17.3588 23.1876L17.364 23.1709L17.3691 23.1542L17.3743 23.1376L17.38 23.1209L17.3857 23.1043L17.3913 23.0878L17.397 23.0713L17.4032 23.0549L17.4094 23.0385L17.4156 23.0221L17.4223 23.0058L17.429 22.9895L17.4357 22.9733L17.4425 22.9571L17.4492 22.941L17.4564 22.9249L17.4636 22.9089L17.4714 22.8929L17.4786 22.877L17.4863 22.8611L17.4941 22.8453L17.5023 22.8296L17.5106 22.8139L17.5189 22.7983L17.5271 22.7827L17.5354 22.7672L17.5442 22.7517L17.5529 22.7364L17.57 22.7075L17.825 22.2788L18.1028 21.8117L18.4441 21.2376L18.822 20.6021L19.2092 19.9514L19.5784 19.3313L19.7472 19.0471L19.9016 18.7878L19.9109 18.7728L19.9202 18.7579L19.9295 18.7431L19.9388 18.7284L19.9486 18.7137L19.9584 18.6991L19.9682 18.6846L19.978 18.6702L19.9878 18.6558L19.9981 18.6415L20.0085 18.6273L20.0188 18.6132L20.0296 18.5992L20.04 18.5852L20.0508 18.5713L20.0616 18.5575L20.073 18.5439L20.0839 18.5302L20.0952 18.5167L20.1066 18.5032L20.1179 18.4899L20.1293 18.4766L20.1412 18.4634L20.1525 18.4503L20.1649 18.4373L20.1768 18.4243L20.1887 18.4115L20.201 18.3988L20.2129 18.3861L20.2253 18.3736L20.2382 18.3611L20.2506 18.3487L20.263 18.3365L20.2759 18.3243L20.2888 18.3122L20.3017 18.3002L20.3152 18.2883L20.3281 18.2765L20.3415 18.2648L20.3544 18.2533L20.3683 18.2417L20.3818 18.2303L20.3952 18.219L20.4091 18.2079L20.4225 18.1968L20.4365 18.1857L20.4504 18.1749L20.4644 18.1641L20.4788 18.1534L20.4928 18.1429L20.5072 18.1324L20.5217 18.122L20.5361 18.1118L20.5506 18.1016L20.565 18.0916L20.58 18.0817L20.595 18.0718L20.6094 18.0621L20.6244 18.0526L20.6394 18.0431L20.6549 18.0337L20.6699 18.0245L20.6853 18.0153L20.7003 18.0063L20.7158 17.9974L20.7313 17.9886L20.7468 17.9799L20.7623 17.9714L20.7783 17.9629L20.7938 17.9546L20.8098 17.9464L20.8253 17.9383L20.8413 17.9304L20.8573 17.9225L20.8733 17.9148L20.8893 17.9072L20.9058 17.8997L20.9218 17.8924L20.9383 17.8852L20.9543 17.8781L20.9709 17.8711L20.9874 17.8643L21.0039 17.8576L21.0204 17.851L21.0369 17.8445L21.054 17.8381L21.0705 17.8319L21.0875 17.8259L21.1041 17.82L21.1211 17.8142L21.1381 17.8085L21.1552 17.8029L21.1722 17.7975L21.1893 17.7922L21.2063 17.7871L21.2233 17.7821L21.2404 17.7772L21.2579 17.7725L21.275 17.7679L21.2925 17.7635L21.3101 17.7592L21.3271 17.755L21.3447 17.751L21.3622 17.7471L21.3798 17.7434L21.3973 17.7398L21.4149 17.7363L21.4324 17.7329L21.4505 17.7298L21.4681 17.7267L21.4856 17.7239L21.5037 17.7211L21.5125 17.7198L21.5212 17.7186L21.53 17.7173L21.5393 17.7161L21.5481 17.715L21.5569 17.7138L21.5662 17.7127L21.5749 17.7117L21.5837 17.7107L21.593 17.7097L21.6018 17.7088L21.6106 17.7079L21.6199 17.707L21.6286 17.7062L21.6374 17.7054L21.6467 17.7046L21.6555 17.7039L21.6648 17.7033L21.6735 17.7026L21.6828 17.702L21.6916 17.7015L21.7009 17.7009L21.7097 17.7005L21.719 17.7L21.7278 17.6996L21.737 17.6993L21.7458 17.6989L21.7551 17.6986L21.7639 17.6984L21.7732 17.6982L21.782 17.698L21.7913 17.6979L21.8031 17.6978L21.8155 17.6976L21.83 17.6973L26.2098 17.6983ZM50.8983 29.8581H29.8321L49.3473 -2.90447L50.9535 -3L50.8983 29.8581ZM21.8274 18.2979L21.8114 18.2982L21.799 18.2983L21.7928 18.2984L21.7866 18.2985L21.7799 18.2987L21.7737 18.2989L21.7675 18.2991L21.7613 18.2993L21.7551 18.2995L21.7489 18.2998L21.7422 18.3001L21.736 18.3005L21.7298 18.3008L21.7236 18.3012L21.7174 18.3016L21.7107 18.3021L21.7045 18.3026L21.6983 18.303L21.6921 18.3036L21.6859 18.3041L21.6797 18.3047L21.673 18.3053L21.6668 18.3059L21.6606 18.3066L21.6544 18.3073L21.6482 18.308L21.642 18.3087L21.6353 18.3095L21.6291 18.3103L21.6229 18.3111L21.6168 18.312L21.6106 18.3128L21.6044 18.3138L21.5987 18.3146L21.5853 18.3166L21.5729 18.3186L21.5605 18.3208L21.5481 18.323L21.5357 18.3253L21.5228 18.3278L21.5104 18.3303L21.498 18.333L21.4856 18.3358L21.4732 18.3386L21.4608 18.3416L21.4484 18.3446L21.436 18.3478L21.4237 18.3511L21.4118 18.3545L21.3994 18.3579L21.387 18.3615L21.3746 18.3652L21.3622 18.369L21.3503 18.3729L21.3379 18.3769L21.3261 18.3809L21.3137 18.3851L21.3013 18.3894L21.2894 18.3938L21.2775 18.3982L21.2652 18.4028L21.2533 18.4075L21.2414 18.4122L21.2295 18.4171L21.2177 18.422L21.2058 18.4271L21.1939 18.4323L21.182 18.4375L21.1701 18.4429L21.1583 18.4483L21.1464 18.4538L21.135 18.4594L21.1232 18.4651L21.1118 18.4709L21.0999 18.4768L21.0886 18.4828L21.0772 18.4889L21.0659 18.4951L21.054 18.5013L21.0426 18.5077L21.0313 18.5141L21.0204 18.5206L21.0091 18.5272L20.9977 18.5339L20.9869 18.5407L20.9755 18.5476L20.9647 18.5545L20.9538 18.5616L20.943 18.5687L20.9321 18.5759L20.9213 18.5831L20.9105 18.5905L20.8996 18.598L20.8893 18.6055L20.8784 18.6131L20.8681 18.6208L20.8578 18.6285L20.8475 18.6364L20.8371 18.6443L20.8268 18.6523L20.8165 18.6604L20.8062 18.6685L20.7963 18.6767L20.786 18.685L20.7762 18.6934L20.7664 18.7018L20.7566 18.7104L20.7468 18.719L20.7375 18.7276L20.7277 18.7363L20.7184 18.7451L20.7086 18.7539L20.6993 18.7629L20.69 18.7719L20.6812 18.781L20.6719 18.7901L20.6626 18.7992L20.6538 18.8085L20.6451 18.8178L20.6363 18.8271L20.6275 18.8366L20.6187 18.8461L20.61 18.8556L20.6017 18.8653L20.5934 18.875L20.5847 18.8847L20.5769 18.8945L20.5687 18.9043L20.5604 18.9142L20.5527 18.9241L20.5444 18.9341L20.5366 18.9443L20.5289 18.9544L20.5217 18.9645L20.5139 18.9747L20.5067 18.985L20.499 18.9953L20.4917 19.0057L20.4845 19.0161L20.4778 19.0265L20.4706 19.037L20.4639 19.0476L20.4571 19.0582L20.4504 19.0688L20.4437 19.0795L20.437 19.0901L20.2842 19.3473L20.1148 19.6314L19.7457 20.2514L19.359 20.9021L18.981 21.5375L18.6398 22.1116L18.362 22.5786L18.1074 23.0064L18.093 23.0312L18.0873 23.0411L18.0811 23.0521L18.0749 23.0631L18.0692 23.0742L18.063 23.0854L18.0574 23.0966L18.0517 23.1079L18.046 23.1191L18.0403 23.1305L18.0352 23.142L18.0295 23.1534L18.0243 23.1649L18.0192 23.1764L18.0145 23.1881L18.0094 23.1997L18.0047 23.2113L17.9995 23.2231L17.9949 23.2348L17.9908 23.2466L17.9861 23.2585L17.982 23.2703L17.9773 23.2823L17.9732 23.2942L17.9691 23.3062L17.9655 23.3183L17.9613 23.3303L17.9577 23.3424L17.9541 23.3546L17.9505 23.3668L17.9469 23.379L17.9433 23.3912L17.9402 23.4034L17.9371 23.4157L17.934 23.4281L17.9309 23.4404L17.9283 23.4527L17.9252 23.4651L17.9226 23.4775L17.92 23.49L17.9174 23.5024L17.9154 23.5149L17.9128 23.5274L17.9107 23.5399L17.9087 23.5525L17.9066 23.565L17.9045 23.5776L17.903 23.5902L17.9014 23.6028L17.8999 23.6154L17.8983 23.628L17.8968 23.6406L17.8958 23.6534L17.8942 23.666L17.8932 23.6786L17.8921 23.6913L17.8916 23.704L17.8906 23.7167L17.8901 23.7294L17.8896 23.742L17.8891 23.7547L17.8885 23.7674V23.7928L17.888 23.8055L17.8885 23.8181V23.8435L17.8891 23.8562L17.8896 23.8688L17.8906 23.8941L17.8916 23.9068L17.8921 23.9194L17.8942 23.9446L17.8953 23.9571L17.8983 23.9822L17.8994 23.9948L17.9009 24.0073L17.903 24.0197L17.9045 24.0322L17.9066 24.0446L17.9082 24.0571L17.9102 24.0695L17.9128 24.0819L17.9149 24.0942L17.9174 24.1065L17.9195 24.1189L17.9247 24.1433L17.9278 24.1555L17.9304 24.1677L17.9335 24.1799L17.9366 24.192L17.9397 24.204L17.9427 24.216L17.9464 24.2281L17.9495 24.24L17.9567 24.2638L17.9608 24.2757L17.9644 24.2875L17.9686 24.2993L17.9722 24.311L17.9763 24.3227L17.981 24.3343L17.9851 24.3459L17.9892 24.3574L17.9985 24.3804L18.0032 24.3918L18.0078 24.4032L18.013 24.4145L18.0176 24.4258L18.0228 24.437L18.0279 24.4481L18.0331 24.4593L18.0388 24.4703L18.0439 24.4813L18.0496 24.4923L18.0553 24.5032L18.0667 24.5248L18.0729 24.5362L18.0754 24.5408L18.0816 24.5515L18.0878 24.5621L18.0904 24.5668L20.4153 28.4702L20.4386 28.5089L20.4406 28.5126L20.4442 28.518L20.4473 28.5232L20.4509 28.5285L20.454 28.5338L20.4577 28.539L20.4608 28.5442L20.4644 28.5494L20.4716 28.5598L20.4747 28.565L20.4783 28.5701L20.4819 28.5752L20.485 28.5799L20.4928 28.5906L20.5 28.6007L20.5072 28.6107L20.515 28.6207L20.5222 28.6307L20.5299 28.6406L20.5377 28.6504L20.5454 28.6601L20.5537 28.6698L20.5614 28.6795L20.5697 28.6891L20.578 28.6985L20.5945 28.7174L20.6027 28.7267L20.611 28.7359L20.6198 28.7451L20.6285 28.7542L20.6373 28.7633L20.6461 28.7722L20.6549 28.7811L20.6637 28.79L20.6729 28.7987L20.6817 28.8075L20.691 28.8161L20.7003 28.8247L20.7096 28.8332L20.7194 28.8416L20.7287 28.8499L20.7385 28.8582L20.7478 28.8664L20.7576 28.8746L20.7674 28.8827L20.7772 28.8907L20.7871 28.8986L20.7974 28.9064L20.8072 28.9142L20.8175 28.9219L20.8273 28.9295L20.8377 28.937L20.848 28.9445L20.8588 28.9519L20.8691 28.9592L20.8795 28.9664L20.8903 28.9736L20.9006 28.9807L20.9115 28.9877L20.9223 28.9946L20.9332 29.0015L20.944 29.0082L20.9549 29.0149L20.9657 29.0215L20.9771 29.028L20.9879 29.0344L20.9993 29.0408L21.0106 29.047L21.022 29.0533L21.0328 29.0594L21.0442 29.0654L21.056 29.0713L21.0674 29.0771L21.0788 29.0829L21.0901 29.0885L21.102 29.0941L21.1139 29.0996L21.1252 29.105L21.1371 29.1104L21.149 29.1156L21.1727 29.1258L21.1846 29.1308L21.1965 29.1356L21.2084 29.1404L21.2202 29.1451L21.2326 29.1497L21.2445 29.1542L21.2569 29.1586L21.2688 29.1629L21.2812 29.1672L21.2935 29.1713L21.3054 29.1754L21.3178 29.1793L21.3302 29.1832L21.3426 29.187L21.355 29.1906L21.3674 29.1942L21.3798 29.1977L21.3922 29.2011L21.4046 29.2043L21.4175 29.2075L21.4298 29.2106L21.4422 29.2136L21.4551 29.2165L21.4675 29.2193L21.4799 29.222L21.4928 29.2247L21.5052 29.2272L21.5181 29.2296L21.5305 29.2319L21.5434 29.2341L21.5558 29.2363L21.5687 29.2383L21.5816 29.2402L21.594 29.242L21.6069 29.2437L21.6199 29.2454L21.6322 29.2469L21.6451 29.2483L21.6581 29.2496L21.671 29.2508L21.6834 29.252L21.6963 29.253L21.7092 29.2539L21.7221 29.2547L21.7345 29.2554L21.7474 29.256L21.7603 29.2566L21.7732 29.257L21.7861 29.2573L21.7985 29.2575L21.8119 29.2576L21.941 29.2577L22.2978 29.258L22.5445 29.2582L22.8275 29.2583L23.1414 29.2584L23.4791 29.2585H23.8338L24.1993 29.2584L24.569 29.2582L24.9366 29.2578L25.1173 29.2576L25.2949 29.2574L25.4689 29.2571L25.6382 29.2567L25.8019 29.2563L25.9594 29.2559L26.1096 29.2554L26.248 29.2549L26.2599 29.2547L26.2728 29.2544L26.2857 29.254L26.2986 29.2535L26.3115 29.2528L26.3239 29.2521L26.3368 29.2513L26.3497 29.2503L26.3626 29.2493L26.3755 29.2481L26.3879 29.2469L26.4008 29.2455L26.4137 29.244L26.4266 29.2425L26.439 29.2408L26.4519 29.239L26.4648 29.2372L26.4772 29.2352L26.4901 29.2331L26.5025 29.231L26.5154 29.2287L26.5278 29.2263L26.5407 29.2238L26.5531 29.2212L26.5655 29.2186L26.5784 29.2158L26.5908 29.2129L26.6032 29.2099L26.6156 29.2069L26.6285 29.2037L26.6409 29.2004L26.6533 29.1971L26.6657 29.1936L26.6781 29.1901L26.6904 29.1864L26.7023 29.1827L26.7147 29.1788L26.7271 29.1749L26.739 29.1708L26.7514 29.1667L26.7632 29.1624L26.7756 29.1581L26.7875 29.1537L26.7999 29.1492L26.8118 29.1446L26.8237 29.1399L26.8355 29.1352L26.8474 29.1303L26.8593 29.1253L26.8712 29.1202L26.883 29.1151L26.8949 29.1099L26.9063 29.1045L26.9181 29.0991L26.9295 29.0936L26.9414 29.088L26.9527 29.0823L26.9641 29.0765L26.976 29.0707L26.9873 29.0647L26.9987 29.0587L27.0095 29.0526L27.0209 29.0463L27.0322 29.0401L27.0431 29.0337L27.0544 29.0273L27.0653 29.0207L27.0766 29.0141L27.0875 29.0074L27.0983 29.0007L27.1092 28.9938L27.1195 28.9868L27.1303 28.9797L27.1412 28.9727L27.1515 28.9655L27.1618 28.9582L27.1727 28.9509L27.183 28.9435L27.1933 28.9359L27.2036 28.9284L27.2135 28.9207L27.2238 28.913L27.2341 28.9052L27.2439 28.8974L27.2537 28.8894L27.2635 28.8814L27.2734 28.8733L27.2832 28.8651L27.293 28.8569L27.3028 28.8486L27.3121 28.8402L27.3214 28.8318L27.3307 28.8233L27.34 28.8146L27.3492 28.806L27.3585 28.7973L27.3678 28.7885L27.3766 28.7797L27.3854 28.7708L27.3942 28.7617L27.4029 28.7527L27.4117 28.7436L27.4205 28.7344L27.4288 28.7252L27.4375 28.7159L27.4458 28.7065L27.4541 28.6971L27.4623 28.6876L27.4706 28.678L27.4783 28.6685L27.4861 28.6588L27.4943 28.6491L27.5021 28.6393L27.5098 28.6294L27.517 28.6196L27.5248 28.6096L27.532 28.5996L27.5392 28.5895L27.547 28.5794L27.5537 28.5692L27.5609 28.559L27.5682 28.5487L27.5749 28.5384L27.5816 28.528L27.5883 28.5175L27.595 28.507L27.6017 28.4965L27.6079 28.4858L27.754 28.241L27.9012 27.9942L28.0483 27.7474L28.196 27.5007L28.4908 27.0075L28.6379 26.761L28.7851 26.5144L28.9322 26.2679L29.0794 26.0214L29.226 25.7748L29.2993 25.6516L29.3726 25.5283L29.4459 25.4051L29.5193 25.2818L29.5926 25.1585L29.6654 25.0351L29.7387 24.9118L29.8115 24.7884L29.8843 24.665L29.9555 24.5448L29.9612 24.5351L29.9674 24.5241L29.9731 24.5131L29.9793 24.5021L29.985 24.491L29.9907 24.4799L29.9963 24.4688L30.002 24.4576L30.0077 24.4463L30.0128 24.435L30.018 24.4237L30.0232 24.4124L30.0283 24.4011L30.033 24.3896L30.0381 24.3781L30.0428 24.3667L30.0474 24.3551L30.0521 24.3436L30.0562 24.332L30.0609 24.3203L30.065 24.3088L30.0691 24.2971L30.0733 24.2854L30.0769 24.2736L30.081 24.2618L30.0846 24.2501L30.0882 24.2382L30.0918 24.2264L30.0955 24.2145L30.0986 24.2025L30.1017 24.1906L30.1048 24.1787L30.1078 24.1666L30.1109 24.1547L30.114 24.1427L30.1166 24.1306L30.1192 24.1185L30.1218 24.1064L30.1244 24.0943L30.1264 24.0822L30.1285 24.07L30.1306 24.0578L30.1326 24.0456L30.1347 24.0335L30.1368 24.0213L30.1383 24.009L30.1399 23.9968L30.1414 23.9845L30.143 23.9722L30.1445 23.9599L30.1455 23.9477L30.1466 23.9353L30.1476 23.9229L30.1486 23.9106L30.1497 23.8984L30.1502 23.886L30.1507 23.8736L30.1512 23.8612L30.1517 23.8489L30.1523 23.8365V23.7747L30.1517 23.7622V23.7499L30.1512 23.7375L30.1507 23.7251L30.1497 23.7128L30.1492 23.7004L30.1481 23.688L30.1471 23.6757L30.1461 23.6634L30.145 23.651L30.1435 23.6387L30.1424 23.6263L30.1409 23.6141L30.1393 23.6018L30.1378 23.5895L30.1357 23.5772L30.1337 23.565L30.1321 23.5527L30.13 23.5405L30.1275 23.5282L30.1254 23.5161L30.1228 23.5039L30.1202 23.4918L30.1182 23.4797L30.1151 23.4675L30.1125 23.4553L30.1094 23.4433L30.1068 23.4313L30.1037 23.4192L30.1006 23.4072L30.097 23.3952L30.0939 23.3833L30.0903 23.3714L30.0867 23.3594L30.0831 23.3475L30.0795 23.3357L30.0758 23.3239L30.0717 23.3121L30.0676 23.3003L30.0634 23.2886L30.0593 23.2769L30.0547 23.2653L30.0505 23.2536L30.0459 23.242L30.0412 23.2305L30.0366 23.219L30.032 23.2075L30.0268 23.196L30.0221 23.1846L30.017 23.1732L30.0118 23.1619L30.0067 23.1506L30.001 23.1394L29.9958 23.1281L29.9901 23.1169L29.9845 23.1059L29.9788 23.0948L29.9726 23.0838L29.9669 23.0727L29.9607 23.0618L29.9545 23.0508L29.9483 23.04L29.9421 23.0293L29.924 22.9991L27.6038 19.1035L27.5945 19.0881L27.5883 19.0783L27.5816 19.0674L27.5749 19.0565L27.5676 19.0458L27.5604 19.035L27.5532 19.0243L27.546 19.0137L27.5382 19.0031L27.531 18.9925L27.5232 18.9821L27.5155 18.9716L27.5078 18.9612L27.5 18.951L27.4923 18.9406L27.484 18.9304L27.4763 18.9203L27.468 18.9102L27.4597 18.9002L27.4515 18.8902L27.4427 18.8803L27.4344 18.8704L27.4257 18.8606L27.4169 18.8509L27.4081 18.8413L27.3993 18.8317L27.3905 18.8221L27.3813 18.8127L27.3725 18.8033L27.3632 18.794L27.3539 18.7847L27.3446 18.7755L27.3353 18.7664L27.326 18.7573L27.3162 18.7483L27.3069 18.7394L27.2971 18.7306L27.2873 18.7218L27.2775 18.7132L27.2677 18.7045L27.2579 18.6959L27.2481 18.6875L27.2377 18.6791L27.2279 18.6708L27.2176 18.6626L27.2073 18.6544L27.1969 18.6463L27.1866 18.6383L27.1763 18.6304L27.166 18.6225L27.1551 18.6148L27.1448 18.6071L27.1339 18.5995L27.1231 18.5919L27.1128 18.5845L27.1019 18.5772L27.0911 18.5699L27.0803 18.5628L27.0694 18.5557L27.0581 18.5487L27.0472 18.5418L27.0359 18.5349L27.025 18.5282L27.0137 18.5215L27.0023 18.515L26.9914 18.5085L26.9801 18.5022L26.9687 18.4958L26.9569 18.4896L26.9455 18.4836L26.9341 18.4775L26.9228 18.4716L26.9114 18.4658L26.8996 18.46L26.8882 18.4544L26.8763 18.4488L26.8644 18.4434L26.8531 18.438L26.8412 18.4328L26.8293 18.4276L26.8175 18.4225L26.8061 18.4176L26.7942 18.4127L26.7824 18.4079L26.7705 18.4033L26.7581 18.3987L26.7462 18.3942L26.7343 18.3898L26.7225 18.3855L26.7106 18.3814L26.6982 18.3773L26.6863 18.3733L26.6739 18.3694L26.662 18.3656L26.6502 18.362L26.6378 18.3584L26.6259 18.3549L26.6135 18.3515L26.6016 18.3483L26.5893 18.3451L26.5769 18.342L26.565 18.3391L26.5526 18.3362L26.5402 18.3335L26.5283 18.3308L26.5159 18.3283L26.5035 18.3259L26.4917 18.3235L26.4793 18.3213L26.4669 18.3192L26.4545 18.3171L26.4421 18.3152L26.4292 18.3133L26.424 18.3125L26.4178 18.3117L26.4116 18.3109L26.4054 18.3101L26.3993 18.3093L26.3931 18.3086L26.3869 18.3078L26.3812 18.3072L26.375 18.3065L26.3688 18.3059L26.3626 18.3053L26.3564 18.3047L26.3502 18.3042L26.344 18.3036L26.3378 18.3031L26.3316 18.3027L26.3259 18.3022L26.3197 18.3018L26.3135 18.3014L26.3073 18.3011L26.3012 18.3007L26.295 18.3004L26.2888 18.3002L26.2826 18.2999L26.2764 18.2997L26.2707 18.2995L26.2645 18.2993L26.2583 18.2991L26.2521 18.299L26.2459 18.2989L26.2397 18.2989L26.234 18.2988H26.2098L21.8367 18.2978L21.8274 18.2979ZM49.7175 -2.32481L30.9055 29.2576H50.2798L50.3329 -2.36139L49.7175 -2.32481ZM32.2784 21.8508L19.629 0.614646L21.6451 -2.76965L47.0085 -2.87809L32.2784 21.8508ZM22.0035 -2.17068L20.3446 0.614646L32.2784 20.6497L45.9325 -2.27297L22.0035 -2.17068ZM26.3409 15.7833H10.5937L18.4673 2.56489L26.3409 15.7833ZM11.6671 15.1828H25.268L18.4673 3.76594L11.6671 15.1828Z" fill="url(#paint1_linear)"/>
<path fill-rule="evenodd" clip-rule="evenodd" d="M-1.60599 51L-3 50.957L-2.98347 38.5774L9.43203 17.7335H18.2092L-1.60599 51ZM30.7217 50.8749L0.869685 50.7163L15.7567 25.7513L30.7217 50.8749ZM50.9318 50.8003L32.9305 50.6822L21.689 31.8098H51L50.9318 50.8003ZM9.78983 18.3341L-2.36443 38.7387L-2.37992 50.3755L-1.95707 50.3885L17.1363 18.3341H9.78983ZM1.93998 50.1217L29.6452 50.2689L15.7567 26.9518L1.93998 50.1217ZM22.7619 32.4103L33.2898 50.0842L50.3144 50.1958L50.3779 32.4103H22.7619ZM26.2098 17.6983H26.2361L26.2454 17.6984L26.2542 17.6985L26.2629 17.6986L26.2722 17.6988L26.2898 17.6993L26.2986 17.6996L26.3079 17.6999L26.3254 17.7007L26.3347 17.7011L26.3435 17.7016L26.361 17.7027L26.3703 17.7033L26.3791 17.7039L26.3967 17.7053L26.406 17.7061L26.4235 17.7077L26.4411 17.7095L26.4504 17.7104L26.4591 17.7114L26.4767 17.7135L26.4943 17.7157L26.5118 17.7181L26.5206 17.7193L26.5381 17.7219L26.5557 17.7247L26.5732 17.7275L26.5908 17.7306L26.6084 17.7338L26.6259 17.7371L26.6435 17.7406L26.6605 17.7442L26.6781 17.748L26.6956 17.7519L26.7126 17.7559L26.7302 17.7601L26.7472 17.7644L26.7643 17.7689L26.7813 17.7735L26.7989 17.7782L26.8159 17.7831L26.8329 17.7881L26.85 17.7933L26.8665 17.7986L26.8835 17.8041L26.9006 17.8096L26.9171 17.8153L26.9341 17.8211L26.9507 17.8271L26.9672 17.8332L26.9842 17.8394L27.0007 17.8458L27.0173 17.8523L27.0338 17.8589L27.0498 17.8657L27.0663 17.8725L27.0828 17.8795L27.0988 17.8867L27.1154 17.8939L27.1314 17.9013L27.1474 17.9088L27.1634 17.9165L27.1794 17.9242L27.1954 17.9321L27.2114 17.9401L27.2269 17.9482L27.2429 17.9565L27.2584 17.9648L27.2739 17.9733L27.2894 17.9819L27.3048 17.9907L27.3203 17.9995L27.3358 18.0085L27.3508 18.0175L27.3663 18.0268L27.3813 18.0361L27.3962 18.0455L27.4112 18.055L27.4262 18.0647L27.4412 18.0744L27.4556 18.0844L27.4706 18.0943L27.485 18.1044L27.4995 18.1147L27.5139 18.125L27.5284 18.1354L27.5429 18.146L27.5568 18.1566L27.5713 18.1674L27.5852 18.1782L27.5991 18.1892L27.6131 18.2003L27.627 18.2115L27.6404 18.2228L27.6544 18.2341L27.6678 18.2456L27.6812 18.2573L27.6947 18.2689L27.7081 18.2807L27.721 18.2926L27.7344 18.3046L27.7473 18.3167L27.7602 18.3289L27.7731 18.3412L27.7855 18.3536L27.7984 18.3661L27.8108 18.3787L27.8232 18.3914L27.8356 18.4041L27.8475 18.417L27.8599 18.43L27.8717 18.443L27.8836 18.4562L27.8955 18.4694L27.9074 18.4828L27.9192 18.4962L27.9306 18.5097L27.942 18.5233L27.9533 18.5369L27.9642 18.5507L27.9755 18.5646L27.9864 18.5785L27.9972 18.5925L28.0189 18.6209L28.0292 18.6352L28.0395 18.6495L28.0499 18.664L28.0602 18.6785L28.07 18.6931L28.0798 18.7078L28.0896 18.7226L28.0994 18.7375L28.1092 18.7524L28.1185 18.7674L28.1278 18.7825L28.1397 18.8022L30.4605 22.6988L30.4801 22.7311L30.4889 22.7462L30.4977 22.7614L30.5059 22.7766L30.5142 22.7919L30.523 22.8072L30.5307 22.8226L30.539 22.8381L30.5467 22.8536L30.5544 22.8692L30.5622 22.8848L30.5694 22.9004L30.5772 22.9162L30.5844 22.9319L30.5911 22.9477L30.5983 22.9636L30.605 22.9795L30.6118 22.9955L30.6185 23.0115L30.6309 23.0436L30.6433 23.0759L30.6489 23.0922L30.6546 23.1084L30.666 23.1411L30.6711 23.1574L30.6763 23.1738L30.6815 23.1903L30.6861 23.2068L30.6913 23.2233L30.6959 23.2398L30.7 23.2564L30.7047 23.273L30.7171 23.323L30.7207 23.3398L30.7243 23.3565L30.7279 23.3733L30.7315 23.3901L30.7346 23.4069L30.7408 23.4406L30.7434 23.4575L30.7465 23.4744L30.7491 23.4913L30.7512 23.5083L30.7537 23.5252L30.7558 23.5422L30.7579 23.5592L30.7599 23.5762L30.7615 23.5932L30.763 23.6103L30.7646 23.6273L30.7661 23.6443L30.7692 23.6955L30.7703 23.7127L30.7708 23.7297L30.7718 23.7639V23.8324L30.7713 23.8495V23.8665L30.7703 23.8837L30.7697 23.9008L30.7687 23.9178L30.7677 23.9349L30.7666 23.952L30.7656 23.9691L30.7641 23.9861L30.7625 24.0032L30.761 24.0203L30.7589 24.0373L30.7568 24.0544L30.7548 24.0714L30.7527 24.0883L30.7501 24.1053L30.7475 24.1223L30.745 24.1393L30.7419 24.1562L30.7393 24.1731L30.7362 24.19L30.7326 24.2069L30.7295 24.2237L30.7259 24.2406L30.7222 24.2574L30.7181 24.2742L30.7145 24.291L30.7104 24.3077L30.7062 24.3244L30.7016 24.3411L30.6969 24.3578L30.6923 24.3744L30.6877 24.391L30.6825 24.4076L30.6778 24.4241L30.6722 24.4406L30.667 24.4571L30.6613 24.4735L30.6556 24.4899L30.65 24.5062L30.6443 24.5226L30.6381 24.5389L30.6319 24.5551L30.6252 24.5713L30.619 24.5875L30.6123 24.6036L30.6056 24.6196L30.5983 24.6357L30.5916 24.6517L30.5839 24.6676L30.5767 24.6835L30.5694 24.6994L30.5617 24.7152L30.5539 24.7309L30.5457 24.7467L30.5379 24.7623L30.5297 24.7779L30.5209 24.7934L30.5126 24.8089L30.5039 24.8243L30.4951 24.8397L30.4223 24.9634L30.349 25.087L30.2762 25.2106L30.2029 25.3342L30.1295 25.4577L30.0562 25.5812L29.9829 25.7047L29.9096 25.8282L29.8363 25.9517L29.763 26.0751L29.6158 26.3218L29.4687 26.5685L29.3215 26.8152L29.1739 27.0618L29.0267 27.3084L28.7319 27.8016L28.5848 28.0482L28.4376 28.2949L28.2905 28.5416L28.1433 28.7883L28.134 28.8033L28.1247 28.8181L28.1154 28.833L28.1061 28.8477L28.0969 28.8623L28.087 28.8769L28.0772 28.8913L28.0669 28.9057L28.0571 28.92L28.0468 28.9342L28.0364 28.9483L28.0261 28.9623L28.0158 28.9763L28.005 28.9901L27.9941 29.0039L27.9833 29.0176L27.9724 29.0311L27.9611 29.0446L27.9502 29.0581L27.9389 29.0714L27.9275 29.0846L27.9156 29.0977L27.9043 29.1108L27.8924 29.1237L27.8805 29.1365L27.8686 29.1493L27.8568 29.1619L27.8444 29.1745L27.832 29.187L27.8196 29.1993L27.8072 29.2116L27.7948 29.2238L27.7819 29.2359L27.769 29.2478L27.7566 29.2597L27.7432 29.2715L27.7303 29.2832L27.7174 29.2947L27.7039 29.3062L27.6905 29.3176L27.6771 29.3288L27.6637 29.34L27.6503 29.3511L27.6363 29.362L27.6229 29.3729L27.609 29.3836L27.595 29.3942L27.5806 29.4048L27.5666 29.4152L27.5522 29.4255L27.5382 29.4357L27.5238 29.4458L27.5093 29.4559L27.4948 29.4657L27.4804 29.4755L27.4654 29.4851L27.4504 29.4947L27.436 29.5041L27.421 29.5135L27.406 29.5227L27.3905 29.5318L27.3756 29.5408L27.3606 29.5496L27.3451 29.5584L27.3296 29.5671L27.3141 29.5756L27.2987 29.584L27.2832 29.5923L27.2677 29.6004L27.2517 29.6085L27.2362 29.6164L27.2202 29.6243L27.2042 29.632L27.1882 29.6395L27.1722 29.647L27.1562 29.6543L27.1401 29.6615L27.1236 29.6686L27.1076 29.6756L27.0911 29.6824L27.0746 29.6892L27.0581 29.6958L27.0415 29.7022L27.025 29.7086L27.0085 29.7148L26.992 29.7209L26.9754 29.7268L26.9584 29.7327L26.9414 29.7384L26.9249 29.744L26.9078 29.7495L26.8908 29.7548L26.8737 29.76L26.8567 29.765L26.8397 29.7699L26.8226 29.7747L26.8051 29.7794L26.788 29.7839L26.7705 29.7883L26.7534 29.7926L26.7359 29.7967L26.7183 29.8008L26.7013 29.8046L26.6837 29.8083L26.6662 29.8119L26.6486 29.8154L26.6311 29.8187L26.6135 29.8218L26.5955 29.8249L26.5779 29.8278L26.5603 29.8305L26.5423 29.8331L26.5247 29.8356L26.5066 29.8379L26.4891 29.8401L26.471 29.8422L26.453 29.8441L26.4354 29.8458L26.4173 29.8474L26.3993 29.8489L26.3812 29.8502L26.3631 29.8514L26.345 29.8524L26.327 29.8534L26.3089 29.8541L26.2908 29.8547L26.2728 29.8551L26.2547 29.8554L26.1117 29.8559L25.9609 29.8565L25.8034 29.8569L25.6393 29.8573L25.4699 29.8576L25.2959 29.8579L25.1178 29.8582L24.9371 29.8584L24.5695 29.8587L24.1993 29.8589L23.8338 29.859H23.4791L23.1414 29.859L22.8275 29.8589L22.544 29.8587L22.2972 29.8585L21.9405 29.8583L21.8088 29.8581L21.7907 29.858L21.7732 29.8577L21.7551 29.8573L21.737 29.8567L21.7195 29.8559L21.7014 29.8551L21.6839 29.8541L21.6658 29.8529L21.6482 29.8517L21.6302 29.8502L21.6126 29.8487L21.5946 29.847L21.577 29.8452L21.5594 29.8432L21.5414 29.8411L21.5238 29.8388L21.5063 29.8364L21.4887 29.8339L21.4706 29.8313L21.4531 29.8285L21.4355 29.8255L21.418 29.8225L21.4009 29.8193L21.3834 29.8159L21.3658 29.8125L21.3483 29.8089L21.3307 29.8051L21.3137 29.8013L21.2961 29.7972L21.2791 29.7931L21.2615 29.7888L21.2445 29.7844L21.2275 29.7799L21.2104 29.7753L21.1934 29.7705L21.1758 29.7656L21.1588 29.7605L21.1423 29.7554L21.1252 29.7501L21.1082 29.7446L21.0917 29.739L21.0746 29.7333L21.0576 29.7275L21.0411 29.7216L21.0246 29.7156L21.008 29.7094L20.9915 29.7031L20.975 29.6966L20.9585 29.6901L20.9419 29.6834L20.9259 29.6765L20.9094 29.6696L20.8934 29.6626L20.8769 29.6554L20.8609 29.6481L20.8449 29.6407L20.8289 29.6332L20.8129 29.6255L20.7969 29.6177L20.7814 29.6098L20.7654 29.6018L20.7499 29.5936L20.7344 29.5854L20.7189 29.577L20.7034 29.5685L20.6879 29.5599L20.6724 29.5512L20.6569 29.5423L20.642 29.5334L20.627 29.5243L20.6115 29.5151L20.5965 29.5058L20.5821 29.4964L20.5671 29.4868L20.5521 29.4772L20.5377 29.4675L20.5232 29.4576L20.5083 29.4476L20.4943 29.4375L20.4799 29.4273L20.4654 29.417L20.4515 29.4065L20.437 29.396L20.4231 29.3853L20.4091 29.3746L20.3952 29.3637L20.3818 29.3527L20.3678 29.3417L20.3544 29.3304L20.341 29.3191L20.3275 29.3077L20.3141 29.2962L20.3007 29.2846L20.2878 29.2729L20.2749 29.261L20.262 29.2491L20.2491 29.2371L20.2362 29.2249L20.2238 29.2127L20.2114 29.2003L20.199 29.1879L20.1866 29.1753L20.1742 29.1626L20.1623 29.1499L20.1499 29.137L20.1381 29.1241L20.1262 29.111L20.1148 29.0978L20.103 29.0845L20.0916 29.0712L20.0802 29.0577L20.0689 29.0441L20.058 29.0305L20.0467 29.0167L20.0358 29.0029L20.025 28.9889L20.0147 28.9749L20.0038 28.9607L19.9935 28.9465L19.9832 28.9321L19.9728 28.9177L19.9677 28.9105L19.963 28.9032L19.9579 28.8959L19.9527 28.8886L19.9481 28.8813L19.9429 28.8738L19.9383 28.8665L19.9331 28.859L19.9284 28.8516L19.9238 28.8442L19.9192 28.8367L19.9145 28.8292L19.9093 28.8217L19.9052 28.8141L19.8794 28.7716L17.5529 24.8655L17.5483 24.8579L17.5442 24.8504L17.54 24.8428L17.5354 24.8352L17.5313 24.8276L17.5271 24.82L17.5183 24.8047L17.5101 24.7893L17.5023 24.7738L17.4941 24.7583L17.4863 24.7427L17.4786 24.7271L17.4708 24.7115L17.4636 24.6957L17.4564 24.6799L17.4492 24.6641L17.4419 24.6482L17.4352 24.6322L17.4285 24.6162L17.4218 24.6001L17.4156 24.584L17.4089 24.5678L17.4027 24.5516L17.397 24.5354L17.3908 24.5191L17.3851 24.5027L17.3795 24.4863L17.3743 24.4698L17.3686 24.4533L17.3635 24.4368L17.3583 24.4202L17.3537 24.4036L17.349 24.387L17.3444 24.3703L17.3397 24.3536L17.3351 24.3368L17.3309 24.32L17.3268 24.3032L17.3232 24.2863L17.3191 24.2694L17.3154 24.2525L17.3118 24.2356L17.3087 24.2185L17.3051 24.2016L17.302 24.1845L17.2994 24.1674L17.2963 24.1504L17.2938 24.1333L17.2912 24.1162L17.2886 24.099L17.2865 24.0818L17.2845 24.0647L17.2824 24.0474L17.2803 24.0302L17.2788 24.013L17.2767 23.9957L17.2757 23.9785L17.2741 23.9612L17.2731 23.9439L17.2721 23.9266L17.271 23.9093L17.2705 23.892L17.27 23.8746L17.2695 23.8573L17.269 23.84V23.8226L17.2685 23.8053L17.269 23.788V23.7706L17.2695 23.7533L17.27 23.7359L17.2705 23.7186L17.271 23.7012L17.2721 23.6839L17.2731 23.6666L17.2741 23.6492L17.2757 23.6319L17.2772 23.6146L17.2788 23.5973L17.2803 23.58L17.2824 23.5628L17.2845 23.5455L17.2865 23.5282L17.2886 23.511L17.2912 23.4938L17.2938 23.4765L17.2963 23.4594L17.2994 23.4422L17.3025 23.4251L17.3056 23.4079L17.3087 23.3908L17.3123 23.3738L17.3154 23.3567L17.3196 23.3396L17.3232 23.3226L17.3273 23.3056L17.3314 23.2887L17.3356 23.2718L17.3397 23.2549L17.3444 23.238L17.349 23.2212L17.3537 23.2044L17.3588 23.1876L17.364 23.1709L17.3691 23.1542L17.3743 23.1376L17.38 23.1209L17.3857 23.1043L17.3913 23.0878L17.397 23.0713L17.4032 23.0549L17.4094 23.0385L17.4156 23.0221L17.4223 23.0058L17.429 22.9895L17.4357 22.9733L17.4425 22.9571L17.4492 22.941L17.4564 22.9249L17.4636 22.9089L17.4714 22.8929L17.4786 22.877L17.4863 22.8611L17.4941 22.8453L17.5023 22.8296L17.5106 22.8139L17.5189 22.7983L17.5271 22.7827L17.5354 22.7672L17.5442 22.7517L17.5529 22.7364L17.57 22.7075L17.825 22.2788L18.1028 21.8117L18.4441 21.2376L18.822 20.6021L19.2092 19.9514L19.5784 19.3313L19.7472 19.0471L19.9016 18.7878L19.9109 18.7728L19.9202 18.7579L19.9295 18.7431L19.9388 18.7284L19.9486 18.7137L19.9584 18.6991L19.9682 18.6846L19.978 18.6702L19.9878 18.6558L19.9981 18.6415L20.0085 18.6273L20.0188 18.6132L20.0296 18.5992L20.04 18.5852L20.0508 18.5713L20.0616 18.5575L20.073 18.5439L20.0839 18.5302L20.0952 18.5167L20.1066 18.5032L20.1179 18.4899L20.1293 18.4766L20.1412 18.4634L20.1525 18.4503L20.1649 18.4373L20.1768 18.4243L20.1887 18.4115L20.201 18.3988L20.2129 18.3861L20.2253 18.3736L20.2382 18.3611L20.2506 18.3487L20.263 18.3365L20.2759 18.3243L20.2888 18.3122L20.3017 18.3002L20.3152 18.2883L20.3281 18.2765L20.3415 18.2648L20.3544 18.2533L20.3683 18.2417L20.3818 18.2303L20.3952 18.219L20.4091 18.2079L20.4225 18.1968L20.4365 18.1857L20.4504 18.1749L20.4644 18.1641L20.4788 18.1534L20.4928 18.1429L20.5072 18.1324L20.5217 18.122L20.5361 18.1118L20.5506 18.1016L20.565 18.0916L20.58 18.0817L20.595 18.0718L20.6094 18.0621L20.6244 18.0526L20.6394 18.0431L20.6549 18.0337L20.6699 18.0245L20.6853 18.0153L20.7003 18.0063L20.7158 17.9974L20.7313 17.9886L20.7468 17.9799L20.7623 17.9714L20.7783 17.9629L20.7938 17.9546L20.8098 17.9464L20.8253 17.9383L20.8413 17.9304L20.8573 17.9225L20.8733 17.9148L20.8893 17.9072L20.9058 17.8997L20.9218 17.8924L20.9383 17.8852L20.9543 17.8781L20.9709 17.8711L20.9874 17.8643L21.0039 17.8576L21.0204 17.851L21.0369 17.8445L21.054 17.8381L21.0705 17.8319L21.0875 17.8259L21.1041 17.82L21.1211 17.8142L21.1381 17.8085L21.1552 17.8029L21.1722 17.7975L21.1893 17.7922L21.2063 17.7871L21.2233 17.7821L21.2404 17.7772L21.2579 17.7725L21.275 17.7679L21.2925 17.7635L21.3101 17.7592L21.3271 17.755L21.3447 17.751L21.3622 17.7471L21.3798 17.7434L21.3973 17.7398L21.4149 17.7363L21.4324 17.7329L21.4505 17.7298L21.4681 17.7267L21.4856 17.7239L21.5037 17.7211L21.5125 17.7198L21.5212 17.7186L21.53 17.7173L21.5393 17.7161L21.5481 17.715L21.5569 17.7138L21.5662 17.7127L21.5749 17.7117L21.5837 17.7107L21.593 17.7097L21.6018 17.7088L21.6106 17.7079L21.6199 17.707L21.6286 17.7062L21.6374 17.7054L21.6467 17.7046L21.6555 17.7039L21.6648 17.7033L21.6735 17.7026L21.6828 17.702L21.6916 17.7015L21.7009 17.7009L21.7097 17.7005L21.719 17.7L21.7278 17.6996L21.737 17.6993L21.7458 17.6989L21.7551 17.6986L21.7639 17.6984L21.7732 17.6982L21.782 17.698L21.7913 17.6979L21.8031 17.6978L21.8155 17.6976L21.83 17.6973L26.2098 17.6983ZM50.8983 29.8581H29.8321L49.3473 -2.90447L50.9535 -3L50.8983 29.8581ZM21.8274 18.2979L21.8114 18.2982L21.799 18.2983L21.7928 18.2984L21.7866 18.2985L21.7799 18.2987L21.7737 18.2989L21.7675 18.2991L21.7613 18.2993L21.7551 18.2995L21.7489 18.2998L21.7422 18.3001L21.736 18.3005L21.7298 18.3008L21.7236 18.3012L21.7174 18.3016L21.7107 18.3021L21.7045 18.3026L21.6983 18.303L21.6921 18.3036L21.6859 18.3041L21.6797 18.3047L21.673 18.3053L21.6668 18.3059L21.6606 18.3066L21.6544 18.3073L21.6482 18.308L21.642 18.3087L21.6353 18.3095L21.6291 18.3103L21.6229 18.3111L21.6168 18.312L21.6106 18.3128L21.6044 18.3138L21.5987 18.3146L21.5853 18.3166L21.5729 18.3186L21.5605 18.3208L21.5481 18.323L21.5357 18.3253L21.5228 18.3278L21.5104 18.3303L21.498 18.333L21.4856 18.3358L21.4732 18.3386L21.4608 18.3416L21.4484 18.3446L21.436 18.3478L21.4237 18.3511L21.4118 18.3545L21.3994 18.3579L21.387 18.3615L21.3746 18.3652L21.3622 18.369L21.3503 18.3729L21.3379 18.3769L21.3261 18.3809L21.3137 18.3851L21.3013 18.3894L21.2894 18.3938L21.2775 18.3982L21.2652 18.4028L21.2533 18.4075L21.2414 18.4122L21.2295 18.4171L21.2177 18.422L21.2058 18.4271L21.1939 18.4323L21.182 18.4375L21.1701 18.4429L21.1583 18.4483L21.1464 18.4538L21.135 18.4594L21.1232 18.4651L21.1118 18.4709L21.0999 18.4768L21.0886 18.4828L21.0772 18.4889L21.0659 18.4951L21.054 18.5013L21.0426 18.5077L21.0313 18.5141L21.0204 18.5206L21.0091 18.5272L20.9977 18.5339L20.9869 18.5407L20.9755 18.5476L20.9647 18.5545L20.9538 18.5616L20.943 18.5687L20.9321 18.5759L20.9213 18.5831L20.9105 18.5905L20.8996 18.598L20.8893 18.6055L20.8784 18.6131L20.8681 18.6208L20.8578 18.6285L20.8475 18.6364L20.8371 18.6443L20.8268 18.6523L20.8165 18.6604L20.8062 18.6685L20.7963 18.6767L20.786 18.685L20.7762 18.6934L20.7664 18.7018L20.7566 18.7104L20.7468 18.719L20.7375 18.7276L20.7277 18.7363L20.7184 18.7451L20.7086 18.7539L20.6993 18.7629L20.69 18.7719L20.6812 18.781L20.6719 18.7901L20.6626 18.7992L20.6538 18.8085L20.6451 18.8178L20.6363 18.8271L20.6275 18.8366L20.6187 18.8461L20.61 18.8556L20.6017 18.8653L20.5934 18.875L20.5847 18.8847L20.5769 18.8945L20.5687 18.9043L20.5604 18.9142L20.5527 18.9241L20.5444 18.9341L20.5366 18.9443L20.5289 18.9544L20.5217 18.9645L20.5139 18.9747L20.5067 18.985L20.499 18.9953L20.4917 19.0057L20.4845 19.0161L20.4778 19.0265L20.4706 19.037L20.4639 19.0476L20.4571 19.0582L20.4504 19.0688L20.4437 19.0795L20.437 19.0901L20.2842 19.3473L20.1148 19.6314L19.7457 20.2514L19.359 20.9021L18.981 21.5375L18.6398 22.1116L18.362 22.5786L18.1074 23.0064L18.093 23.0312L18.0873 23.0411L18.0811 23.0521L18.0749 23.0631L18.0692 23.0742L18.063 23.0854L18.0574 23.0966L18.0517 23.1079L18.046 23.1191L18.0403 23.1305L18.0352 23.142L18.0295 23.1534L18.0243 23.1649L18.0192 23.1764L18.0145 23.1881L18.0094 23.1997L18.0047 23.2113L17.9995 23.2231L17.9949 23.2348L17.9908 23.2466L17.9861 23.2585L17.982 23.2703L17.9773 23.2823L17.9732 23.2942L17.9691 23.3062L17.9655 23.3183L17.9613 23.3303L17.9577 23.3424L17.9541 23.3546L17.9505 23.3668L17.9469 23.379L17.9433 23.3912L17.9402 23.4034L17.9371 23.4157L17.934 23.4281L17.9309 23.4404L17.9283 23.4527L17.9252 23.4651L17.9226 23.4775L17.92 23.49L17.9174 23.5024L17.9154 23.5149L17.9128 23.5274L17.9107 23.5399L17.9087 23.5525L17.9066 23.565L17.9045 23.5776L17.903 23.5902L17.9014 23.6028L17.8999 23.6154L17.8983 23.628L17.8968 23.6406L17.8958 23.6534L17.8942 23.666L17.8932 23.6786L17.8921 23.6913L17.8916 23.704L17.8906 23.7167L17.8901 23.7294L17.8896 23.742L17.8891 23.7547L17.8885 23.7674V23.7928L17.888 23.8055L17.8885 23.8181V23.8435L17.8891 23.8562L17.8896 23.8688L17.8906 23.8941L17.8916 23.9068L17.8921 23.9194L17.8942 23.9446L17.8953 23.9571L17.8983 23.9822L17.8994 23.9948L17.9009 24.0073L17.903 24.0197L17.9045 24.0322L17.9066 24.0446L17.9082 24.0571L17.9102 24.0695L17.9128 24.0819L17.9149 24.0942L17.9174 24.1065L17.9195 24.1189L17.9247 24.1433L17.9278 24.1555L17.9304 24.1677L17.9335 24.1799L17.9366 24.192L17.9397 24.204L17.9427 24.216L17.9464 24.2281L17.9495 24.24L17.9567 24.2638L17.9608 24.2757L17.9644 24.2875L17.9686 24.2993L17.9722 24.311L17.9763 24.3227L17.981 24.3343L17.9851 24.3459L17.9892 24.3574L17.9985 24.3804L18.0032 24.3918L18.0078 24.4032L18.013 24.4145L18.0176 24.4258L18.0228 24.437L18.0279 24.4481L18.0331 24.4593L18.0388 24.4703L18.0439 24.4813L18.0496 24.4923L18.0553 24.5032L18.0667 24.5248L18.0729 24.5362L18.0754 24.5408L18.0816 24.5515L18.0878 24.5621L18.0904 24.5668L20.4153 28.4702L20.4386 28.5089L20.4406 28.5126L20.4442 28.518L20.4473 28.5232L20.4509 28.5285L20.454 28.5338L20.4577 28.539L20.4608 28.5442L20.4644 28.5494L20.4716 28.5598L20.4747 28.565L20.4783 28.5701L20.4819 28.5752L20.485 28.5799L20.4928 28.5906L20.5 28.6007L20.5072 28.6107L20.515 28.6207L20.5222 28.6307L20.5299 28.6406L20.5377 28.6504L20.5454 28.6601L20.5537 28.6698L20.5614 28.6795L20.5697 28.6891L20.578 28.6985L20.5945 28.7174L20.6027 28.7267L20.611 28.7359L20.6198 28.7451L20.6285 28.7542L20.6373 28.7633L20.6461 28.7722L20.6549 28.7811L20.6637 28.79L20.6729 28.7987L20.6817 28.8075L20.691 28.8161L20.7003 28.8247L20.7096 28.8332L20.7194 28.8416L20.7287 28.8499L20.7385 28.8582L20.7478 28.8664L20.7576 28.8746L20.7674 28.8827L20.7772 28.8907L20.7871 28.8986L20.7974 28.9064L20.8072 28.9142L20.8175 28.9219L20.8273 28.9295L20.8377 28.937L20.848 28.9445L20.8588 28.9519L20.8691 28.9592L20.8795 28.9664L20.8903 28.9736L20.9006 28.9807L20.9115 28.9877L20.9223 28.9946L20.9332 29.0015L20.944 29.0082L20.9549 29.0149L20.9657 29.0215L20.9771 29.028L20.9879 29.0344L20.9993 29.0408L21.0106 29.047L21.022 29.0533L21.0328 29.0594L21.0442 29.0654L21.056 29.0713L21.0674 29.0771L21.0788 29.0829L21.0901 29.0885L21.102 29.0941L21.1139 29.0996L21.1252 29.105L21.1371 29.1104L21.149 29.1156L21.1727 29.1258L21.1846 29.1308L21.1965 29.1356L21.2084 29.1404L21.2202 29.1451L21.2326 29.1497L21.2445 29.1542L21.2569 29.1586L21.2688 29.1629L21.2812 29.1672L21.2935 29.1713L21.3054 29.1754L21.3178 29.1793L21.3302 29.1832L21.3426 29.187L21.355 29.1906L21.3674 29.1942L21.3798 29.1977L21.3922 29.2011L21.4046 29.2043L21.4175 29.2075L21.4298 29.2106L21.4422 29.2136L21.4551 29.2165L21.4675 29.2193L21.4799 29.222L21.4928 29.2247L21.5052 29.2272L21.5181 29.2296L21.5305 29.2319L21.5434 29.2341L21.5558 29.2363L21.5687 29.2383L21.5816 29.2402L21.594 29.242L21.6069 29.2437L21.6199 29.2454L21.6322 29.2469L21.6451 29.2483L21.6581 29.2496L21.671 29.2508L21.6834 29.252L21.6963 29.253L21.7092 29.2539L21.7221 29.2547L21.7345 29.2554L21.7474 29.256L21.7603 29.2566L21.7732 29.257L21.7861 29.2573L21.7985 29.2575L21.8119 29.2576L21.941 29.2577L22.2978 29.258L22.5445 29.2582L22.8275 29.2583L23.1414 29.2584L23.4791 29.2585H23.8338L24.1993 29.2584L24.569 29.2582L24.9366 29.2578L25.1173 29.2576L25.2949 29.2574L25.4689 29.2571L25.6382 29.2567L25.8019 29.2563L25.9594 29.2559L26.1096 29.2554L26.248 29.2549L26.2599 29.2547L26.2728 29.2544L26.2857 29.254L26.2986 29.2535L26.3115 29.2528L26.3239 29.2521L26.3368 29.2513L26.3497 29.2503L26.3626 29.2493L26.3755 29.2481L26.3879 29.2469L26.4008 29.2455L26.4137 29.244L26.4266 29.2425L26.439 29.2408L26.4519 29.239L26.4648 29.2372L26.4772 29.2352L26.4901 29.2331L26.5025 29.231L26.5154 29.2287L26.5278 29.2263L26.5407 29.2238L26.5531 29.2212L26.5655 29.2186L26.5784 29.2158L26.5908 29.2129L26.6032 29.2099L26.6156 29.2069L26.6285 29.2037L26.6409 29.2004L26.6533 29.1971L26.6657 29.1936L26.6781 29.1901L26.6904 29.1864L26.7023 29.1827L26.7147 29.1788L26.7271 29.1749L26.739 29.1708L26.7514 29.1667L26.7632 29.1624L26.7756 29.1581L26.7875 29.1537L26.7999 29.1492L26.8118 29.1446L26.8237 29.1399L26.8355 29.1352L26.8474 29.1303L26.8593 29.1253L26.8712 29.1202L26.883 29.1151L26.8949 29.1099L26.9063 29.1045L26.9181 29.0991L26.9295 29.0936L26.9414 29.088L26.9527 29.0823L26.9641 29.0765L26.976 29.0707L26.9873 29.0647L26.9987 29.0587L27.0095 29.0526L27.0209 29.0463L27.0322 29.0401L27.0431 29.0337L27.0544 29.0273L27.0653 29.0207L27.0766 29.0141L27.0875 29.0074L27.0983 29.0007L27.1092 28.9938L27.1195 28.9868L27.1303 28.9797L27.1412 28.9727L27.1515 28.9655L27.1618 28.9582L27.1727 28.9509L27.183 28.9435L27.1933 28.9359L27.2036 28.9284L27.2135 28.9207L27.2238 28.913L27.2341 28.9052L27.2439 28.8974L27.2537 28.8894L27.2635 28.8814L27.2734 28.8733L27.2832 28.8651L27.293 28.8569L27.3028 28.8486L27.3121 28.8402L27.3214 28.8318L27.3307 28.8233L27.34 28.8146L27.3492 28.806L27.3585 28.7973L27.3678 28.7885L27.3766 28.7797L27.3854 28.7708L27.3942 28.7617L27.4029 28.7527L27.4117 28.7436L27.4205 28.7344L27.4288 28.7252L27.4375 28.7159L27.4458 28.7065L27.4541 28.6971L27.4623 28.6876L27.4706 28.678L27.4783 28.6685L27.4861 28.6588L27.4943 28.6491L27.5021 28.6393L27.5098 28.6294L27.517 28.6196L27.5248 28.6096L27.532 28.5996L27.5392 28.5895L27.547 28.5794L27.5537 28.5692L27.5609 28.559L27.5682 28.5487L27.5749 28.5384L27.5816 28.528L27.5883 28.5175L27.595 28.507L27.6017 28.4965L27.6079 28.4858L27.754 28.241L27.9012 27.9942L28.0483 27.7474L28.196 27.5007L28.4908 27.0075L28.6379 26.761L28.7851 26.5144L28.9322 26.2679L29.0794 26.0214L29.226 25.7748L29.2993 25.6516L29.3726 25.5283L29.4459 25.4051L29.5193 25.2818L29.5926 25.1585L29.6654 25.0351L29.7387 24.9118L29.8115 24.7884L29.8843 24.665L29.9555 24.5448L29.9612 24.5351L29.9674 24.5241L29.9731 24.5131L29.9793 24.5021L29.985 24.491L29.9907 24.4799L29.9963 24.4688L30.002 24.4576L30.0077 24.4463L30.0128 24.435L30.018 24.4237L30.0232 24.4124L30.0283 24.4011L30.033 24.3896L30.0381 24.3781L30.0428 24.3667L30.0474 24.3551L30.0521 24.3436L30.0562 24.332L30.0609 24.3203L30.065 24.3088L30.0691 24.2971L30.0733 24.2854L30.0769 24.2736L30.081 24.2618L30.0846 24.2501L30.0882 24.2382L30.0918 24.2264L30.0955 24.2145L30.0986 24.2025L30.1017 24.1906L30.1048 24.1787L30.1078 24.1666L30.1109 24.1547L30.114 24.1427L30.1166 24.1306L30.1192 24.1185L30.1218 24.1064L30.1244 24.0943L30.1264 24.0822L30.1285 24.07L30.1306 24.0578L30.1326 24.0456L30.1347 24.0335L30.1368 24.0213L30.1383 24.009L30.1399 23.9968L30.1414 23.9845L30.143 23.9722L30.1445 23.9599L30.1455 23.9477L30.1466 23.9353L30.1476 23.9229L30.1486 23.9106L30.1497 23.8984L30.1502 23.886L30.1507 23.8736L30.1512 23.8612L30.1517 23.8489L30.1523 23.8365V23.7747L30.1517 23.7622V23.7499L30.1512 23.7375L30.1507 23.7251L30.1497 23.7128L30.1492 23.7004L30.1481 23.688L30.1471 23.6757L30.1461 23.6634L30.145 23.651L30.1435 23.6387L30.1424 23.6263L30.1409 23.6141L30.1393 23.6018L30.1378 23.5895L30.1357 23.5772L30.1337 23.565L30.1321 23.5527L30.13 23.5405L30.1275 23.5282L30.1254 23.5161L30.1228 23.5039L30.1202 23.4918L30.1182 23.4797L30.1151 23.4675L30.1125 23.4553L30.1094 23.4433L30.1068 23.4313L30.1037 23.4192L30.1006 23.4072L30.097 23.3952L30.0939 23.3833L30.0903 23.3714L30.0867 23.3594L30.0831 23.3475L30.0795 23.3357L30.0758 23.3239L30.0717 23.3121L30.0676 23.3003L30.0634 23.2886L30.0593 23.2769L30.0547 23.2653L30.0505 23.2536L30.0459 23.242L30.0412 23.2305L30.0366 23.219L30.032 23.2075L30.0268 23.196L30.0221 23.1846L30.017 23.1732L30.0118 23.1619L30.0067 23.1506L30.001 23.1394L29.9958 23.1281L29.9901 23.1169L29.9845 23.1059L29.9788 23.0948L29.9726 23.0838L29.9669 23.0727L29.9607 23.0618L29.9545 23.0508L29.9483 23.04L29.9421 23.0293L29.924 22.9991L27.6038 19.1035L27.5945 19.0881L27.5883 19.0783L27.5816 19.0674L27.5749 19.0565L27.5676 19.0458L27.5604 19.035L27.5532 19.0243L27.546 19.0137L27.5382 19.0031L27.531 18.9925L27.5232 18.9821L27.5155 18.9716L27.5078 18.9612L27.5 18.951L27.4923 18.9406L27.484 18.9304L27.4763 18.9203L27.468 18.9102L27.4597 18.9002L27.4515 18.8902L27.4427 18.8803L27.4344 18.8704L27.4257 18.8606L27.4169 18.8509L27.4081 18.8413L27.3993 18.8317L27.3905 18.8221L27.3813 18.8127L27.3725 18.8033L27.3632 18.794L27.3539 18.7847L27.3446 18.7755L27.3353 18.7664L27.326 18.7573L27.3162 18.7483L27.3069 18.7394L27.2971 18.7306L27.2873 18.7218L27.2775 18.7132L27.2677 18.7045L27.2579 18.6959L27.2481 18.6875L27.2377 18.6791L27.2279 18.6708L27.2176 18.6626L27.2073 18.6544L27.1969 18.6463L27.1866 18.6383L27.1763 18.6304L27.166 18.6225L27.1551 18.6148L27.1448 18.6071L27.1339 18.5995L27.1231 18.5919L27.1128 18.5845L27.1019 18.5772L27.0911 18.5699L27.0803 18.5628L27.0694 18.5557L27.0581 18.5487L27.0472 18.5418L27.0359 18.5349L27.025 18.5282L27.0137 18.5215L27.0023 18.515L26.9914 18.5085L26.9801 18.5022L26.9687 18.4958L26.9569 18.4896L26.9455 18.4836L26.9341 18.4775L26.9228 18.4716L26.9114 18.4658L26.8996 18.46L26.8882 18.4544L26.8763 18.4488L26.8644 18.4434L26.8531 18.438L26.8412 18.4328L26.8293 18.4276L26.8175 18.4225L26.8061 18.4176L26.7942 18.4127L26.7824 18.4079L26.7705 18.4033L26.7581 18.3987L26.7462 18.3942L26.7343 18.3898L26.7225 18.3855L26.7106 18.3814L26.6982 18.3773L26.6863 18.3733L26.6739 18.3694L26.662 18.3656L26.6502 18.362L26.6378 18.3584L26.6259 18.3549L26.6135 18.3515L26.6016 18.3483L26.5893 18.3451L26.5769 18.342L26.565 18.3391L26.5526 18.3362L26.5402 18.3335L26.5283 18.3308L26.5159 18.3283L26.5035 18.3259L26.4917 18.3235L26.4793 18.3213L26.4669 18.3192L26.4545 18.3171L26.4421 18.3152L26.4292 18.3133L26.424 18.3125L26.4178 18.3117L26.4116 18.3109L26.4054 18.3101L26.3993 18.3093L26.3931 18.3086L26.3869 18.3078L26.3812 18.3072L26.375 18.3065L26.3688 18.3059L26.3626 18.3053L26.3564 18.3047L26.3502 18.3042L26.344 18.3036L26.3378 18.3031L26.3316 18.3027L26.3259 18.3022L26.3197 18.3018L26.3135 18.3014L26.3073 18.3011L26.3012 18.3007L26.295 18.3004L26.2888 18.3002L26.2826 18.2999L26.2764 18.2997L26.2707 18.2995L26.2645 18.2993L26.2583 18.2991L26.2521 18.299L26.2459 18.2989L26.2397 18.2989L26.234 18.2988H26.2098L21.8367 18.2978L21.8274 18.2979ZM49.7175 -2.32481L30.9055 29.2576H50.2798L50.3329 -2.36139L49.7175 -2.32481ZM32.2784 21.8508L19.629 0.614646L21.6451 -2.76965L47.0085 -2.87809L32.2784 21.8508ZM22.0035 -2.17068L20.3446 0.614646L32.2784 20.6497L45.9325 -2.27297L22.0035 -2.17068ZM26.3409 15.7833H10.5937L18.4673 2.56489L26.3409 15.7833ZM11.6671 15.1828H25.268L18.4673 3.76594L11.6671 15.1828Z" fill="url(#paint2_linear)"/>
</g>
<defs>
<radialGradient id="paint0_radial" cx="0" cy="0" r="1" gradientUnits="userSpaceOnUse" gradientTransform="translate(37.8131 -9.71956) scale(62.0788 58.2273)">
<stop stop-color="#F9A6FF"/>
<stop offset="1" stop-color="#EA73FF"/>
</radialGradient>
<linearGradient id="paint1_linear" x1="1974.74" y1="-1.11886" x2="1974.74" y2="48.9247" gradientUnits="userSpaceOnUse">
<stop stop-color="#F7B3FF"/>
<stop offset="1" stop-color="#EE8AFF"/>
</linearGradient>
<linearGradient id="paint2_linear" x1="1974.74" y1="-1.11886" x2="1974.74" y2="48.9247" gradientUnits="userSpaceOnUse">
<stop stop-color="#F7B3FF"/>
<stop offset="1" stop-color="#EE8AFF"/>
</linearGradient>
<clipPath id="clip0">
<rect width="48" height="48" fill="white"/>
</clipPath>
</defs>
</svg>
