<svg width="48" height="48" viewBox="0 0 48 48" fill="none" xmlns="http://www.w3.org/2000/svg">
<path d="M48 0H0V48H48V0Z" fill="#1D6FED"/>
<path fill-rule="evenodd" clip-rule="evenodd" d="M18.2147 24.9262H13.9135V29.4646H18.1472C19.6022 29.4646 20.7554 29.0015 20.7554 27.2859C20.7563 25.6031 19.7813 24.9262 18.2147 24.9262ZM17.6626 18.3206H13.9126V22.1812H17.9438C19.2207 22.1812 20.1807 21.6056 20.1807 20.2171C20.1807 18.6365 18.9722 18.3206 17.6626 18.3206V18.3206ZM24.5269 27.3534C24.5269 30.7078 21.6479 32.1412 18.6451 32.1412H10.5601V15.5315H18.4079C21.5794 15.5315 23.7357 16.6499 23.7357 19.7315C23.7357 21.3468 22.9126 22.4756 21.4679 23.1749C23.4985 23.7506 24.5269 25.2993 24.5269 27.3534ZM28.4794 16.6499H35.1629V18.8737H28.4794V16.6499ZM31.471 22.3406C29.371 22.3406 28.7607 23.5152 28.7157 24.4293H34.1129C33.8082 22.769 33.0854 22.3396 31.4701 22.3396L31.471 22.3406ZM28.7157 26.5865C28.8094 28.664 29.8341 29.9962 31.6744 29.9962C33.0057 29.9962 34.2263 28.9115 34.441 28.1671H37.3538C36.4276 30.9909 34.2929 32.4693 31.561 32.4693C27.7566 32.4693 25.3613 29.8828 25.3613 26.1796C25.3613 22.6002 27.901 19.8674 31.561 19.8674C35.6719 19.8674 37.6548 22.9059 37.4213 26.5865H28.7157Z" fill="white"/>
</svg>
