<svg width="48" height="48" viewBox="0 0 48 48" fill="none" xmlns="http://www.w3.org/2000/svg">
<rect width="48" height="48" fill="#563D7C"/>
<path d="M0 41.8109C0 45.2294 2.77097 48 6.18915 48H41.8109C45.2294 48 48 45.229 48 41.8109V6.18915C48 2.7706 45.229 0 41.8109 0H6.18915C2.7706 0 0 2.77097 0 6.18915V41.8109Z" fill="#563D7C"/>
<path d="M19.9047 21.2321V14.4346H25.8881C26.458 14.4346 27.0075 14.4821 27.5366 14.5771C28.0658 14.6721 28.5339 14.8416 28.9409 15.0859C29.3479 15.3301 29.6736 15.6693 29.9178 16.1035C30.162 16.5376 30.2841 17.0939 30.2841 17.7723C30.2841 18.9934 29.9178 19.8753 29.1851 20.4181C28.4524 20.9608 27.5163 21.2321 26.3766 21.2321H19.9047ZM13.5142 9.46875V38.5312H27.5977C28.9002 38.5312 30.1688 38.3684 31.4035 38.0428C32.6382 37.7172 33.7372 37.2152 34.7005 36.5368C35.6638 35.8584 36.4304 34.9832 37.0002 33.9114C37.5701 32.8395 37.855 31.5709 37.855 30.1056C37.855 28.2875 37.4141 26.7339 36.5321 25.445C35.6502 24.156 34.3138 23.2538 32.5228 22.7382C33.8254 22.1141 34.809 21.3136 35.4739 20.3367C36.1387 19.3598 36.4711 18.1387 36.4711 16.6733C36.4711 15.3165 36.2472 14.1768 35.7995 13.2542C35.3517 12.3316 34.7208 11.5921 33.9068 11.0358C33.0927 10.4796 32.1158 10.0793 30.9761 9.83508C29.8364 9.59086 28.5746 9.46875 27.1906 9.46875H13.5142ZM19.9047 33.5654V25.5874H26.865C28.2489 25.5874 29.3615 25.9063 30.2027 26.544C31.0439 27.1817 31.4645 28.2468 31.4645 29.7392C31.4645 30.499 31.3356 31.1232 31.0778 31.6116C30.82 32.1001 30.4741 32.4867 30.0399 32.7717C29.6057 33.0566 29.1037 33.2601 28.5339 33.3822C27.964 33.5043 27.367 33.5654 26.7429 33.5654H19.9047Z" fill="white"/>
</svg>
