<svg width="48" height="48" viewBox="0 0 48 48" fill="none" xmlns="http://www.w3.org/2000/svg">
<g clip-path="url(#clip0)">
<path d="M46.9769 29.3904L21.4322 18.2906C23.9333 15.3866 25.4981 11.8264 25.9419 8.01585H27.479C28.2556 8.01585 28.8852 7.38623 28.8852 6.60961V0.984616C28.8852 0.207993 28.2556 -0.421631 27.479 -0.421631H21.854C21.0773 -0.421631 20.4477 0.207993 20.4477 0.984616V6.60961C20.4477 7.38623 21.0773 8.01585 21.854 8.01585H23.1066C22.6065 11.6698 20.8944 15.0375 18.1958 17.6202C15.4696 20.2294 11.9839 21.7955 8.26024 22.1115V21.2429C8.26024 20.4663 7.63061 19.8367 6.85399 19.8367H1.229C0.452378 19.8367 -0.177246 20.4663 -0.177246 21.2429V26.8679C-0.177246 27.6445 0.452378 28.2742 1.229 28.2742H6.85399C7.63061 28.2742 8.26024 27.6445 8.26024 26.8679V24.9338C11.9889 24.6641 15.5223 23.3244 18.4829 21.0682L29.6347 46.7326C29.8589 47.2482 30.3669 47.5784 30.9241 47.5784C31.5451 47.5784 32.0891 47.1725 32.2693 46.5834L34.822 38.2369C35.3587 36.4822 36.7265 35.1143 38.4811 34.5777L46.8276 32.025C47.3908 31.8528 47.787 31.3477 47.8203 30.7597C47.8537 30.1717 47.517 29.6252 46.9769 29.3904ZM23.2602 2.39086H26.0727V5.20336H23.2602V2.39086V2.39086ZM5.44774 25.4617H2.63525V22.6492H5.44774V25.4617ZM37.6585 31.8881C35.0087 32.6986 32.943 34.7644 32.1326 37.4142L30.6948 42.1149L21.7318 21.4874L42.3592 30.4506L37.6585 31.8881Z" fill="#4F4F4F"/>
</g>
<defs>
<clipPath id="clip0">
<rect width="48" height="48" fill="white"/>
</clipPath>
</defs>
</svg>
