<svg width="48" height="48" viewBox="0 0 48 48" fill="none" xmlns="http://www.w3.org/2000/svg">
<path fill-rule="evenodd" clip-rule="evenodd" d="M0 48H48V0H0V48Z" fill="black"/>
<path fill-rule="evenodd" clip-rule="evenodd" d="M39.988 18.946C39.985 18.925 39.98 18.906 39.977 18.886C39.97 18.847 39.963 18.808 39.953 18.771C39.947 18.748 39.938 18.726 39.931 18.704C39.92 18.67 39.909 18.637 39.896 18.604C39.887 18.581 39.876 18.558 39.865 18.537C39.851 18.505 39.836 18.475 39.818 18.446C39.806 18.424 39.792 18.403 39.779 18.382C39.761 18.353 39.742 18.325 39.721 18.298C39.706 18.278 39.69 18.258 39.674 18.239C39.652 18.213 39.629 18.188 39.605 18.164C39.587 18.146 39.57 18.127 39.551 18.111C39.525 18.088 39.499 18.066 39.473 18.045C39.452 18.029 39.432 18.013 39.411 17.998C39.403 17.993 39.396 17.986 39.388 17.981L24.763 8.231C24.301 7.923 23.7 7.923 23.237 8.231L8.613 17.981C8.605 17.986 8.598 17.993 8.59 17.998C8.568 18.013 8.548 18.029 8.528 18.045C8.501 18.066 8.475 18.088 8.45 18.111C8.431 18.127 8.413 18.146 8.395 18.164C8.371 18.188 8.348 18.213 8.327 18.239C8.31 18.258 8.294 18.278 8.279 18.298C8.259 18.325 8.24 18.353 8.222 18.382C8.208 18.403 8.195 18.424 8.182 18.446C8.165 18.475 8.15 18.505 8.135 18.537C8.125 18.558 8.114 18.581 8.105 18.604C8.091 18.637 8.08 18.67 8.069 18.704C8.062 18.726 8.054 18.748 8.048 18.771C8.038 18.808 8.031 18.847 8.024 18.886C8.02 18.906 8.015 18.925 8.013 18.946C8.005 19.004 8 19.064 8 19.125V28.875C8 28.935 8.005 28.995 8.013 29.055C8.015 29.074 8.02 29.094 8.024 29.114C8.031 29.153 8.038 29.191 8.048 29.229C8.054 29.252 8.062 29.274 8.069 29.296C8.08 29.329 8.091 29.363 8.105 29.397C8.114 29.419 8.125 29.441 8.135 29.463C8.15 29.494 8.165 29.524 8.182 29.555C8.195 29.576 8.208 29.597 8.222 29.618C8.24 29.647 8.259 29.674 8.279 29.701C8.294 29.722 8.31 29.742 8.327 29.761C8.348 29.786 8.371 29.812 8.395 29.835C8.413 29.854 8.431 29.872 8.45 29.889C8.475 29.912 8.501 29.934 8.528 29.955C8.548 29.971 8.568 29.987 8.59 30.002C8.598 30.007 8.605 30.014 8.613 30.019L23.237 39.769C23.468 39.923 23.734 40 24 40C24.266 40 24.532 39.923 24.763 39.769L39.388 30.019C39.396 30.014 39.403 30.007 39.411 30.002C39.432 29.987 39.452 29.971 39.473 29.955C39.499 29.934 39.525 29.912 39.551 29.889C39.57 29.872 39.587 29.854 39.605 29.835C39.629 29.812 39.652 29.786 39.674 29.761C39.69 29.742 39.706 29.722 39.721 29.701C39.742 29.674 39.761 29.647 39.779 29.618C39.792 29.597 39.806 29.576 39.818 29.555C39.836 29.524 39.851 29.494 39.865 29.463C39.876 29.441 39.887 29.419 39.896 29.397C39.909 29.363 39.92 29.329 39.931 29.296C39.938 29.274 39.947 29.252 39.953 29.229C39.963 29.191 39.97 29.153 39.977 29.114C39.98 29.094 39.985 29.074 39.988 29.055C39.996 28.995 40 28.935 40 28.875V19.125C40 19.064 39.996 19.004 39.988 18.946ZM25.375 11.945L36.149 19.127L31.337 22.346L25.375 18.358V11.945ZM22.625 11.945V18.358L16.664 22.346L11.851 19.127L22.625 11.945ZM10.75 21.699L14.191 24L10.75 26.301V21.699ZM22.625 36.055L11.851 28.873L16.664 25.655L22.625 29.642V36.055ZM24 27.253L19.137 24L24 20.747L28.864 24L24 27.253ZM25.375 36.055V29.642L31.337 25.655L36.149 28.873L25.375 36.055ZM37.25 26.301L33.81 24L37.25 21.699V26.301Z" fill="white"/>
</svg>
