<svg width="48" height="48" viewBox="0 0 48 48" fill="none" xmlns="http://www.w3.org/2000/svg">
<path d="M29.9285 6.4781L28.3018 6.03216C28.0925 5.96234 27.8862 5.98429 27.6856 6.09785C27.4844 6.21149 27.3486 6.3821 27.2787 6.60939L17.495 40.4722C17.4251 40.6996 17.447 40.914 17.5606 41.1148C17.6743 41.316 17.8445 41.4515 18.0722 41.5214L19.6984 41.9675C19.9082 42.0379 20.1138 42.0158 20.3149 41.9021C20.5161 41.7879 20.6517 41.6178 20.7214 41.3909L30.5055 7.52755C30.5752 7.30026 30.5535 7.08583 30.4397 6.88454C30.3259 6.68334 30.1559 6.54783 29.9285 6.4781Z" fill="#4F4F4F"/>
<path d="M15.266 13.0885C15.266 12.8612 15.1785 12.6599 15.0037 12.4852L13.692 11.1736C13.5172 10.9988 13.316 10.9111 13.0887 10.9111C12.8614 10.9111 12.6601 10.9989 12.4854 11.1736L0.262385 23.3966C0.0872781 23.5714 0 23.7726 0 23.9999C0 24.2272 0.0875537 24.4284 0.262385 24.6031L12.4853 36.8261C12.66 37.0012 12.8609 37.0883 13.0886 37.0883C13.3162 37.0883 13.5172 37.001 13.6919 36.8261L15.0036 35.5153C15.1784 35.3406 15.2659 35.1393 15.2659 34.9117C15.2659 34.6847 15.1784 34.4835 15.0036 34.3087L4.69528 23.9999L15.0037 13.6918C15.1788 13.5171 15.266 13.3158 15.266 13.0885Z" fill="#4F4F4F"/>
<path d="M47.7377 23.3963L35.5144 11.1734C35.3397 10.9986 35.1384 10.9109 34.9115 10.9109C34.6838 10.9109 34.4833 10.9986 34.3079 11.1734L32.9968 12.4848C32.822 12.6597 32.7349 12.8606 32.7349 13.0882C32.7349 13.3157 32.822 13.5167 32.9968 13.6915L43.3053 23.9998L32.9968 34.3088C32.822 34.4835 32.7349 34.6848 32.7349 34.9117C32.7349 35.1394 32.822 35.3406 32.9968 35.5153L34.3079 36.8261C34.4833 37.0013 34.6839 37.0883 34.9115 37.0883C35.1385 37.0883 35.3397 37.001 35.5144 36.8261L47.7377 24.6033C47.9125 24.4285 47.9999 24.227 47.9999 23.9997C47.9999 23.7723 47.9125 23.5711 47.7377 23.3963Z" fill="#4F4F4F"/>
</svg>
