<svg width="48" height="48" viewBox="0 0 48 48" fill="none" xmlns="http://www.w3.org/2000/svg">
<rect width="48" height="48" fill="#DE4C36"/>
<path d="M43.2456 22.2181L25.7809 4.75446C24.7759 3.74851 23.1446 3.74851 22.1382 4.75446L18.5117 8.38105L23.1121 12.9815C24.1812 12.6203 25.407 12.8626 26.2593 13.7149C27.1156 14.5725 27.3561 15.8089 26.9861 16.8816L31.4198 21.3153C32.4924 20.9457 33.7301 21.1849 34.5868 22.043C35.784 23.2398 35.784 25.1797 34.5868 26.3775C33.389 27.5752 31.4492 27.5752 30.251 26.3775C29.3504 25.476 29.1279 24.1532 29.5839 23.0436L25.4491 18.9088L25.4487 29.7899C25.7406 29.9347 26.0162 30.1274 26.2593 30.3697C27.4566 31.5665 27.4566 33.5065 26.2593 34.7051C25.0616 35.9024 23.1209 35.9024 21.9249 34.7051C20.7276 33.5065 20.7276 31.5665 21.9249 30.3697C22.2207 30.0743 22.563 29.8509 22.9282 29.7008V18.7183C22.563 18.5691 22.2211 18.347 21.9249 18.0495C21.0177 17.1436 20.7996 15.8124 21.2644 14.6985L16.7298 10.163L4.75477 22.1373C3.74841 23.1442 3.74841 24.7755 4.75477 25.7815L22.2194 43.2455C23.2249 44.2515 24.8558 44.2515 25.8626 43.2455L43.2456 25.8627C44.2515 24.8563 44.2515 23.224 43.2456 22.2181Z" fill="white"/>
</svg>
