<svg width="48" height="48" viewBox="0 0 48 48" fill="none" xmlns="http://www.w3.org/2000/svg">
<path fill-rule="evenodd" clip-rule="evenodd" d="M0 48H48V0H0V48Z" fill="#3E75C3"/>
<path fill-rule="evenodd" clip-rule="evenodd" d="M23.999 8.66663C15.164 8.66663 8 15.858 8 24.7311C8 31.8271 12.584 37.8478 18.943 39.9722C19.743 40.1198 20.035 39.6239 20.035 39.1982C20.035 38.8167 20.021 37.8067 20.013 36.4664C15.562 37.4372 14.623 34.3129 14.623 34.3129C13.896 32.4576 12.847 31.9636 12.847 31.9636C11.394 30.9667 12.957 30.9868 12.957 30.9868C14.562 31.1002 15.407 32.6423 15.407 32.6423C16.835 35.097 19.152 34.3882 20.064 33.9766C20.209 32.9385 20.623 32.2307 21.08 31.8291C17.527 31.4235 13.792 30.046 13.792 23.8907C13.792 22.1368 14.415 20.7032 15.439 19.5797C15.274 19.1731 14.725 17.5407 15.595 15.3289C15.595 15.3289 16.939 14.8972 19.995 16.9754C21.272 16.619 22.64 16.4413 24.001 16.4343C25.36 16.4413 26.729 16.619 28.007 16.9754C31.061 14.8972 32.402 15.3289 32.402 15.3289C33.275 17.5407 32.726 19.1731 32.561 19.5797C33.587 20.7032 34.206 22.1368 34.206 23.8907C34.206 30.0611 30.465 31.4195 26.901 31.817C27.475 32.313 27.987 33.2929 27.987 34.7918C27.987 36.9393 27.967 38.6711 27.967 39.1982C27.967 39.6279 28.255 40.1278 29.067 39.9702C35.42 37.8418 40 31.8251 40 24.7311C40 15.858 32.836 8.66663 23.999 8.66663Z" fill="white"/>
</svg>
