<svg width="48" height="48" viewBox="0 0 48 48" fill="none" xmlns="http://www.w3.org/2000/svg">
<path d="M0 0H48V48H0V0Z" fill="#F7DF1E"/>
<path d="M12.6207 40.1123L16.294 37.8893C17.0026 39.1457 17.6473 40.2088 19.1936 40.2088C20.6758 40.2088 21.6102 39.629 21.6102 37.3738V22.0366H26.121V37.4375C26.121 42.1095 23.3824 44.2361 19.3869 44.2361C15.7785 44.2361 13.6838 42.3672 12.6206 40.1119" fill="black"/>
<path d="M28.5713 39.6289L32.2441 37.5023C33.211 39.0813 34.4676 40.2412 36.6907 40.2412C38.5597 40.2412 39.7516 39.3067 39.7516 38.0178C39.7516 36.4713 38.5273 35.9234 36.4651 35.0216L35.3377 34.5379C32.0832 33.1527 29.9244 31.4128 29.9244 27.7396C29.9244 24.3564 32.502 21.7787 36.5297 21.7787C39.3973 21.7787 41.4594 22.7776 42.9414 25.3875L39.4293 27.6428C38.656 26.2575 37.8185 25.7098 36.5298 25.7098C35.2087 25.7098 34.3709 26.5475 34.3709 27.6428C34.3709 28.9961 35.2087 29.544 37.1417 30.3818L38.2693 30.8651C42.1036 32.5084 44.2625 34.1837 44.2625 37.9534C44.2625 42.0134 41.0727 44.2364 36.7874 44.2364C32.5988 44.2364 29.8922 42.2389 28.5714 39.6289" fill="black"/>
</svg>
