<svg width="48" height="48" viewBox="0 0 48 48" fill="none" xmlns="http://www.w3.org/2000/svg">
<path fill-rule="evenodd" clip-rule="evenodd" d="M0 48H48V0H0V48Z" fill="#007EBB"/>
<path fill-rule="evenodd" clip-rule="evenodd" d="M41.3332 41.3333H34.2103V29.2014C34.2103 25.8751 32.9464 24.0163 30.3136 24.0163C27.4496 24.0163 25.9532 25.9507 25.9532 29.2014V41.3333H19.0887V18.2222H25.9532V21.3352C25.9532 21.3352 28.0172 17.5161 32.9215 17.5161C37.8236 17.5161 41.3332 20.5096 41.3332 26.7008V41.3333ZM10.8994 15.196C8.56121 15.196 6.6665 13.2864 6.6665 10.9313C6.6665 8.5762 8.56121 6.66663 10.8994 6.66663C13.2376 6.66663 15.1312 8.5762 15.1312 10.9313C15.1312 13.2864 13.2376 15.196 10.8994 15.196ZM7.35487 41.3333H14.5128V18.2222H7.35487V41.3333Z" fill="white"/>
</svg>
