<svg width="48" height="48" viewBox="0 0 48 48" fill="none" xmlns="http://www.w3.org/2000/svg">
<rect width="48" height="48" fill="#2A4997"/>
<path d="M8.79199 34.1349V13.44C15.6468 13.44 19.0439 13.3693 20.4664 13.7505C21.6521 14.0611 22.645 14.7365 23.4449 15.7762C24.9947 17.7913 24.926 21.1838 23.9531 23.011C23.0731 24.6633 21.5883 25.6922 20.0288 26.032C18.1927 26.3957 15.4742 26.3285 12.9704 26.3285V34.1349H8.79199ZM12.9705 16.941V22.8135C17.2046 22.8135 18.8556 22.9506 19.8664 21.4724C20.5375 20.4909 20.5232 18.9376 19.6759 17.9997C18.6168 16.8287 17.4596 16.941 12.9705 16.941Z" fill="#76C8DA"/>
<path d="M25.2041 29.8576L29.185 29.2505C29.5555 30.9387 30.694 31.6081 32.3894 31.6081C33.6829 31.6081 35.2268 31.2836 35.2268 29.9846C35.2268 29.1114 34.4965 28.919 33.6175 28.7142C30.4177 28.0083 28.3895 27.3638 27.5333 26.7802C26.3475 25.971 25.7547 24.8462 25.7547 23.4063C25.7547 22.1076 26.2675 21.016 27.2933 20.1313C28.3189 19.2467 29.9095 18.8043 32.0647 18.8043C35.3403 18.8043 37.784 19.591 38.6995 22.7711L34.9586 23.4629C34.7985 22.8795 34.495 22.4324 34.0481 22.1218C33.0261 21.4119 30.681 21.5834 29.8908 22.0935C29.3269 22.4811 29.2629 23.1897 29.8343 23.6181C30.9829 24.4649 35.8909 24.7734 37.9654 26.4979C38.7935 27.2038 39.2077 28.1873 39.2077 29.4482C39.2077 30.8224 38.6336 32.0033 37.4855 32.9915C36.3372 33.9796 34.6385 34.4738 32.3895 34.4738C30.3471 34.4738 28.7309 34.0598 27.5404 33.2315C26.3497 32.4034 25.5711 31.2788 25.2041 29.8576Z" fill="#76C8DA"/>
</svg>
