<svg width="48" height="48" viewBox="0 0 48 48" fill="none" xmlns="http://www.w3.org/2000/svg">
<rect width="48" height="48" fill="#CD6799"/>
<g clip-path="url(#clip0)">
<path d="M38.5581 25.7057C37.2013 25.7127 36.0221 26.0369 35.0346 26.5163C34.6723 25.8043 34.3101 25.1699 34.2461 24.7047C34.1751 24.162 34.0898 23.8307 34.1751 23.1822C34.2603 22.5337 34.6439 21.6103 34.6368 21.5398C34.6297 21.4693 34.5516 21.1381 33.7702 21.131C32.9887 21.124 32.3139 21.279 32.2357 21.4834C32.1576 21.6879 32.0084 22.1531 31.909 22.6324C31.774 23.3373 30.3461 25.8537 29.5292 27.1718C29.2663 26.6572 29.039 26.2061 28.9893 25.8466C28.9183 25.3039 28.833 24.9726 28.9183 24.3241C29.0035 23.6756 29.3871 22.7522 29.38 22.6817C29.3729 22.6112 29.2948 22.28 28.5133 22.2729C27.7319 22.2659 27.0571 22.4209 26.9789 22.6253C26.9008 22.8298 26.8155 23.3091 26.6521 23.7743C26.4887 24.2395 24.592 28.4406 24.0948 29.5261C23.839 30.0829 23.6188 30.527 23.4625 30.8301C23.4625 30.8301 23.4554 30.8512 23.4341 30.8865C23.2991 31.1473 23.221 31.2883 23.221 31.2883C23.221 31.2883 23.221 31.2883 23.221 31.2953C23.1144 31.4856 23.0008 31.6618 22.9439 31.6618C22.9013 31.6618 22.8232 31.1543 22.9581 30.4636C23.2423 29.0045 23.9172 26.7348 23.9101 26.6572C23.9101 26.6149 24.0379 26.2202 23.4696 26.0158C22.9155 25.8114 22.7166 26.1497 22.6669 26.1497C22.6172 26.1497 22.5816 26.2696 22.5816 26.2696C22.5816 26.2696 23.1997 23.7179 21.4024 23.7179C20.28 23.7179 18.7314 24.9373 17.9642 26.0369C17.4811 26.2977 16.451 26.8546 15.3499 27.4537C14.9308 27.6864 14.4975 27.919 14.0926 28.1375C14.0642 28.1093 14.0357 28.074 14.0073 28.0458C11.8336 25.7409 7.81279 24.1126 7.98328 21.0182C8.04721 19.8904 8.43792 16.9299 15.7051 13.3351C21.6866 10.4098 26.4461 11.2205 27.2702 13.0179C28.4494 15.5836 24.7199 20.3486 18.5396 21.0394C16.1811 21.3002 14.945 20.3979 14.6325 20.0596C14.3057 19.7072 14.256 19.686 14.1352 19.7565C13.9363 19.8622 14.0642 20.1794 14.1352 20.3627C14.3199 20.842 15.08 21.6879 16.3658 22.1037C17.5024 22.4703 20.2658 22.6747 23.6117 21.3918C27.3554 19.9539 30.2822 15.9572 29.4226 12.6091C28.5631 9.21156 22.88 8.09081 17.5024 9.98692C14.3057 11.1147 10.839 12.891 8.34557 15.203C5.38328 17.952 4.91443 20.3415 5.10623 21.3425C5.7953 24.895 10.7325 27.207 12.7073 28.9199C12.6079 28.9763 12.5155 29.0256 12.4374 29.0679C11.4499 29.5543 7.68492 31.5068 6.74721 33.5721C5.68164 35.9122 6.9177 37.5899 7.73464 37.8154C10.2707 38.5132 12.8778 37.2586 14.2773 35.1862C15.6767 33.1139 15.5062 30.4213 14.8598 29.1877C14.8527 29.1736 14.8456 29.1595 14.8314 29.1454C15.0871 28.9974 15.3499 28.8423 15.6057 28.6943C16.1101 28.3983 16.6073 28.1234 17.0336 27.8978C16.792 28.5533 16.6144 29.3358 16.5292 30.4636C16.4226 31.7887 16.9696 33.5086 17.6871 34.1853C18.0068 34.4814 18.3833 34.4884 18.6248 34.4884C19.4631 34.4884 19.8396 33.7976 20.2587 32.98C20.7702 31.979 21.2319 30.816 21.2319 30.816C21.2319 30.816 20.6565 33.9597 22.2193 33.9597C22.7876 33.9597 23.3631 33.2267 23.6188 32.8531V32.8601C23.6188 32.8601 23.633 32.839 23.6614 32.7896C23.7183 32.698 23.7538 32.6416 23.7538 32.6416V32.6275C23.9811 32.2328 24.4926 31.3376 25.2527 29.8503C26.233 27.9331 27.1778 25.5365 27.1778 25.5365C27.1778 25.5365 27.2631 26.1215 27.5543 27.0943C27.7248 27.6652 28.08 28.2925 28.3642 28.8987C28.1368 29.2159 27.9948 29.3921 27.9948 29.3921C27.9948 29.3921 27.9948 29.3921 28.0019 29.3992C27.8172 29.6389 27.6183 29.8997 27.398 30.1534C26.6237 31.0698 25.7002 32.12 25.5724 32.4231C25.4232 32.7826 25.4587 33.0434 25.7428 33.2549C25.9489 33.4099 26.3183 33.4311 26.6948 33.4099C27.3909 33.3606 27.8811 33.1914 28.1226 33.0857C28.4991 32.9518 28.9396 32.7474 29.3516 32.4443C30.1117 31.8874 30.5734 31.0909 30.5308 30.0406C30.5095 29.4626 30.3177 28.8846 30.0833 28.3419C30.1543 28.2432 30.2183 28.1445 30.2893 28.0458C31.4898 26.3048 32.4204 24.3946 32.4204 24.3946C32.4204 24.3946 32.5057 24.9796 32.7969 25.9524C32.939 26.4458 33.2303 26.9815 33.486 27.5031C32.3565 28.4124 31.6603 29.4697 31.4117 30.1605C30.9642 31.4433 31.3122 32.0213 31.9729 32.1553C32.2713 32.2187 32.6975 32.0777 33.0101 31.9438C33.4079 31.8169 33.8767 31.5984 34.3243 31.2742C35.0844 30.7173 35.8161 29.942 35.7734 28.8917C35.7521 28.4124 35.6243 27.9401 35.4467 27.4819C36.4057 27.0872 37.6417 26.8687 39.2188 27.052C42.6002 27.4467 43.268 29.5402 43.1401 30.4213C43.0122 31.3024 42.3019 31.7817 42.0674 31.9297C41.833 32.0777 41.7549 32.1271 41.7762 32.2328C41.8046 32.3879 41.9183 32.3808 42.1172 32.3526C42.3942 32.3033 43.8931 31.6407 43.957 30.0195C44.0636 27.9472 42.0745 25.6845 38.5581 25.7057ZM12.4729 34.432C11.3505 35.6444 9.78765 36.1026 9.11279 35.7149C8.3882 35.299 8.67235 33.5086 10.0505 32.2258C10.8887 31.4433 11.9685 30.7173 12.686 30.2732C12.8494 30.1746 13.0909 30.0336 13.3822 29.8574C13.4319 29.8292 13.4603 29.8151 13.4603 29.8151C13.5172 29.7798 13.574 29.7446 13.6308 29.7093C14.1352 31.542 13.6521 33.1562 12.4729 34.432ZM20.6423 28.9199C20.2516 29.8644 19.4346 32.2821 18.9374 32.1482C18.5111 32.0354 18.2483 30.2028 18.8521 28.3912C19.1576 27.4819 19.804 26.3964 20.1805 25.9735C20.7915 25.2968 21.4663 25.0713 21.6297 25.3462C21.8357 25.7057 20.8838 28.3278 20.6423 28.9199ZM27.3838 32.12C27.2204 32.2046 27.0642 32.261 26.9931 32.2187C26.9434 32.1905 27.0642 32.0777 27.0642 32.0777C27.0642 32.0777 27.9095 31.1755 28.2434 30.7667C28.4352 30.527 28.6625 30.245 28.904 29.9279V30.0195C28.904 31.0979 27.8527 31.824 27.3838 32.12ZM32.5838 30.9429C32.4631 30.8583 32.4844 30.5763 32.8893 29.6952C33.0456 29.3499 33.415 28.7719 34.0472 28.215C34.1183 28.4406 34.168 28.6591 34.1609 28.8635C34.1538 30.2239 33.1734 30.7314 32.5838 30.9429Z" fill="white"/>
</g>
<defs>
<clipPath id="clip0">
<rect width="39" height="29.0233" fill="white" transform="translate(5 9)"/>
</clipPath>
</defs>
</svg>
