<svg width="49" height="49" viewBox="0 0 49 49" fill="none" xmlns="http://www.w3.org/2000/svg">
<g clip-path="url(#clip0)">
<path d="M39.6436 17.6537C39.6451 17.566 39.647 17.4784 39.647 17.3904C39.647 8.86091 32.7077 1.92163 24.1782 1.92163C15.6488 1.92163 8.70947 8.86091 8.70947 17.3904C8.70947 17.4784 8.71135 17.5661 8.71285 17.6537C3.65316 20.2101 0.178223 25.4355 0.178223 31.4529C0.178223 39.9823 7.1595 46.9216 15.7407 46.9216C18.8514 46.9216 21.75 45.9978 24.1782 44.4114C26.6064 45.9978 29.505 46.9216 32.6157 46.9216C41.1969 46.9216 48.1782 39.9823 48.1782 31.4529C48.1782 25.4355 44.7033 20.2101 39.6436 17.6537ZM24.1782 40.8776C21.7834 38.7313 20.2088 35.6883 19.9873 32.2819C21.3207 32.6577 22.7263 32.8591 24.1782 32.8591C25.6301 32.8591 27.0357 32.6577 28.3691 32.2819C28.1477 35.6883 26.5731 38.7313 24.1782 40.8776ZM24.1782 30.0466C22.7631 30.0466 21.4014 29.8131 20.1297 29.3826C20.6092 26.4813 22.0783 23.91 24.1782 22.0282C26.2781 23.91 27.7473 26.4814 28.2267 29.3826C26.955 29.8131 25.5934 30.0466 24.1782 30.0466ZM17.5054 28.1399C14.472 26.25 12.2931 23.1131 11.6907 19.4515C12.9637 19.0271 14.3256 18.7966 15.7407 18.7966C17.9508 18.7966 20.0299 19.3666 21.84 20.3665C19.7045 22.4427 18.1651 25.1283 17.5054 28.1399ZM26.5164 20.3665C28.3266 19.3666 30.4057 18.7966 32.6157 18.7966C34.0309 18.7966 35.3928 19.0271 36.6657 19.4515C36.0634 23.1131 33.8844 26.25 30.8511 28.1399C30.1913 25.1283 28.652 22.4427 26.5164 20.3665ZM24.1782 4.73413C30.876 4.73413 36.3743 9.96407 36.8062 16.5544C35.4724 16.1833 34.0671 15.9841 32.6157 15.9841C29.505 15.9841 26.6064 16.9079 24.1782 18.4944C21.75 16.9079 18.8514 15.9841 15.7407 15.9841C14.2894 15.9841 12.8841 16.1833 11.5503 16.5544C11.9822 9.96407 17.4804 4.73413 24.1782 4.73413ZM15.7407 44.1091C8.71032 44.1091 2.99072 38.4315 2.99072 31.4529C2.99072 26.9034 5.42194 22.9075 9.06197 20.6764C10.0567 25.2561 13.0847 29.0863 17.1506 31.1685C17.1488 31.2632 17.147 31.3578 17.147 31.4529C17.147 35.7965 18.9473 39.7269 21.84 42.5393C20.0299 43.5391 17.9508 44.1091 15.7407 44.1091ZM32.6157 44.1091C30.4057 44.1091 28.3266 43.5391 26.5164 42.5393C29.4092 39.7269 31.2095 35.7965 31.2095 31.4529C31.2095 31.3578 31.2076 31.2632 31.2058 31.1685C35.2718 29.0863 38.2998 25.2561 39.2945 20.6764C42.9345 22.9075 45.3657 26.9034 45.3657 31.4529C45.3657 38.4315 39.6461 44.1091 32.6157 44.1091Z" fill="#4F4F4F"/>
</g>
<defs>
<clipPath id="clip0">
<rect width="48" height="48" fill="white" transform="translate(0.178223 0.421631)"/>
</clipPath>
</defs>
</svg>
