<svg width="48" height="48" viewBox="0 0 48 48" fill="none" xmlns="http://www.w3.org/2000/svg">
<rect width="48" height="48" fill="#4353FF"/>
<path d="M24 48C37.2548 48 48 37.2548 48 24C48 10.7452 37.2548 0 24 0C10.7452 0 0 10.7452 0 24C0 37.2548 10.7452 48 24 48Z" fill="#4353FF"/>
<path d="M31.0502 21.15L28.8752 28.005C28.8752 27.48 27.3752 16.11 27.3752 16.11C23.9252 16.11 22.0952 18.555 21.1352 21.15L18.4802 28.02C18.4802 27.525 18.1052 21.21 18.1052 21.21C17.9771 19.8429 17.3521 18.5703 16.3486 17.6331C15.3451 16.696 14.0328 16.1594 12.6602 16.125L15.4802 33.345C19.0802 33.345 21.0302 30.9 22.0352 28.305L24.2852 22.455C24.2852 22.695 25.7852 33.345 25.7852 33.345C27.2572 33.3431 28.6905 32.8725 29.8771 32.0014C31.0638 31.1302 31.9423 29.9039 32.3852 28.5L37.4852 16.11C33.8852 16.11 31.9952 18.555 31.0352 21.15H31.0502Z" fill="white"/>
</svg>
