<svg width="48" height="48" viewBox="0 0 48 48" fill="none" xmlns="http://www.w3.org/2000/svg">
<path fill-rule="evenodd" clip-rule="evenodd" d="M0 48H48V0H0V48Z" fill="#00759D"/>
<path fill-rule="evenodd" clip-rule="evenodd" d="M8 23.9995C8 21.6794 8.49802 19.4774 9.38504 17.4883L17.0173 38.3989C11.6801 35.8059 8 30.3327 8 23.9995ZM34.801 23.1925C34.801 24.5615 34.274 26.1506 33.584 28.3646L31.9869 33.6968L26.2048 16.4983C27.1678 16.4473 28.0358 16.3453 28.0358 16.3453C28.8979 16.2443 28.7969 14.9762 27.9338 15.0272C27.9338 15.0272 25.3427 15.2302 23.6697 15.2302C22.0976 15.2302 19.4556 15.0272 19.4556 15.0272C18.5925 14.9762 18.4915 16.2943 19.3536 16.3453C19.3536 16.3453 20.1706 16.4473 21.0326 16.4983L23.5247 23.3275L20.0226 33.8288L14.1964 16.4983C15.1604 16.4473 16.0275 16.3453 16.0275 16.3453C16.8895 16.2443 16.7875 14.9762 15.9254 15.0272C15.9254 15.0272 13.3344 15.2302 11.6613 15.2302C11.3613 15.2302 11.0073 15.2232 10.6313 15.2112C13.4924 10.8681 18.4095 8 23.9997 8C28.1648 8 31.9579 9.59205 34.804 12.2001C34.735 12.1961 34.668 12.1871 34.597 12.1871C33.025 12.1871 31.9099 13.5562 31.9099 15.0272C31.9099 16.3453 32.671 17.4613 33.482 18.7803C34.09 19.8454 34.801 21.2144 34.801 23.1925ZM38.0399 16.3236C39.289 18.6026 40 21.2177 40 23.9998C40 29.902 36.8009 35.0561 32.0438 37.8292L36.9309 23.6998C37.8439 21.4167 38.1479 19.5917 38.1479 17.9686C38.1479 17.3796 38.1089 16.8336 38.0399 16.3236ZM24.2807 25.3991L29.1989 38.8736C29.2309 38.9526 29.2709 39.0246 29.3129 39.0936C27.6498 39.6786 25.8628 40.0006 23.9997 40.0006C22.4297 40.0006 20.9136 39.7706 19.4796 39.3486L24.2807 25.3991Z" fill="white"/>
</svg>
