<svg width="48" height="48" viewBox="0 0 48 48" fill="none" xmlns="http://www.w3.org/2000/svg">
<rect width="48" height="48" fill="#592B49"/>
<path d="M8.29834 33.4951L14.8962 23.4206L8.91737 14.1887H13.4739L17.3458 20.3914L21.1385 14.1887H25.6557L19.6503 23.5653L26.2482 33.495H21.5467L17.2666 26.818L12.9734 33.495L8.29834 33.4951Z" fill="#DA2286"/>
<path d="M39.7019 33.4951H36.2647V31.4406C35.694 32.2396 35.0203 32.8344 34.2433 33.225C33.4663 33.6155 32.6827 33.8111 31.8926 33.8111C30.286 33.8111 28.9097 33.1638 27.7639 31.8686C26.6182 30.5736 26.0454 28.7673 26.0454 26.4495C26.0454 24.0789 26.6029 22.2771 27.7178 21.0435C28.8328 19.8101 30.2418 19.1932 31.9453 19.1932C33.5078 19.1932 34.86 19.843 36.0015 21.1421V14.1887H39.702V33.4951H39.7019ZM29.8249 26.1992C29.8249 27.6919 30.0312 28.7718 30.444 29.4388C31.0409 30.4048 31.8749 30.8875 32.9461 30.8875C33.7976 30.8875 34.5219 30.5254 35.119 29.8011C35.7159 29.0767 36.0146 27.9948 36.0146 26.5548C36.0146 24.9481 35.7248 23.7915 35.1454 23.0846C34.566 22.378 33.824 22.0245 32.9198 22.0245C32.0417 22.0245 31.3067 22.3735 30.714 23.0715C30.1213 23.7695 29.8249 24.8122 29.8249 26.1992Z" fill="#DA2286"/>
</svg>
