<svg width="167" height="47" viewBox="0 0 167 47" fill="none" xmlns="http://www.w3.org/2000/svg">
<path d="M98.9028 8.84106V17.2887H85.3807V22.5959H95.1088V29.8779H85.3807V42.8236H74.5824V8.84106H98.9028Z" fill="url(#paint0_linear)"/>
<path d="M57.558 29.878H46.2085L44.4781 34.7327H33.2376L45.7324 0.750122H58.0824L70.5289 34.7327H59.2402L57.558 29.878ZM55.9367 22.5961L51.8591 12.1256L47.8299 22.5961H55.9367Z" fill="url(#paint1_linear)"/>
<path d="M121.197 18.8392C121.929 19.177 122.493 19.6685 122.888 20.3136H133.579C133.092 16.7812 131.508 13.986 128.828 11.9281C126.178 9.87003 122.736 8.84106 118.503 8.84106C115.182 8.84106 112.289 9.54755 109.821 10.9604C107.354 12.3427 105.45 14.2932 104.111 16.8119C102.8 19.3306 102.146 22.2026 102.146 25.4278C102.146 28.653 102.8 31.5249 104.111 34.0436C105.45 36.5624 107.354 38.5282 109.821 39.9412C112.319 41.3234 115.243 42.0145 118.594 42.0145C121.278 42.0145 123.633 41.5798 125.655 40.7107V42.0145H133.762V22.5959H117.268V29.8779H125.655C124.224 31.7823 122.036 33.0301 119.69 33.0301C117.223 33.0301 115.395 32.4003 114.208 31.141C113.019 29.8816 112.426 27.9772 112.426 25.4278C112.426 23.2163 112.958 21.4807 114.025 20.2214C115.09 18.9313 116.599 18.2863 118.548 18.2863C119.583 18.2863 120.467 18.4706 121.197 18.8392Z" fill="url(#paint2_linear)"/>
<rect y="22.596" width="167" height="7.28198" fill="#EFEFEF"/>
<rect x="145.112" y="6.41376" width="40.4555" height="7.29611" transform="rotate(90 145.112 6.41376)" fill="#333333"/>
<rect x="29.1844" y="6.41376" width="40.4555" height="7.29612" transform="rotate(90 29.1844 6.41376)" fill="#333333"/>
<rect x="154.029" y="10.4594" width="32.3643" height="7.29611" transform="rotate(90 154.029 10.4594)" fill="#333333"/>
<rect x="20.3895" y="10.4594" width="32.3643" height="7.29612" transform="rotate(90 20.3895 10.4594)" fill="#333333"/>
<rect x="162.947" y="14.5051" width="24.2732" height="7.29611" transform="rotate(90 162.947 14.5051)" fill="#333333"/>
<rect x="11.3494" y="14.5051" width="24.2732" height="7.29612" transform="rotate(90 11.3494 14.5051)" fill="#333333"/>
<defs>
<linearGradient id="paint0_linear" x1="86.7426" y1="8.84106" x2="86.7426" y2="42.8236" gradientUnits="userSpaceOnUse">
<stop stop-color="#485563"/>
<stop offset="1" stop-color="#29323C" stop-opacity="0"/>
</linearGradient>
<linearGradient id="paint1_linear" x1="51.8833" y1="0.750122" x2="51.8833" y2="34.7327" gradientUnits="userSpaceOnUse">
<stop stop-color="#485563"/>
<stop offset="1" stop-color="#29323C" stop-opacity="0"/>
</linearGradient>
<linearGradient id="paint2_linear" x1="117.954" y1="8.84106" x2="117.954" y2="42.0145" gradientUnits="userSpaceOnUse">
<stop stop-color="#485563"/>
<stop offset="1" stop-color="#29323C" stop-opacity="0"/>
</linearGradient>
</defs>
</svg>
